<?xml version="1.0" encoding="utf-8"?>
<!-- Generator: Adobe Illustrator 22.1.0, SVG Export Plug-In . SVG Version: 6.00 Build 0)  -->
<svg version="1.1" id="monster" xmlns="http://www.w3.org/2000/svg" xmlns:xlink="http://www.w3.org/1999/xlink" x="0px" y="0px"
	 viewBox="0 0 1000 1000" style="enable-background:new 0 0 1000 1000;" xml:space="preserve">
<style type="text/css">
	.st0{fill:#C783B7;}
	.st1{fill:#125785;}
	.st2{fill:#8E4C87;}
	.st3{fill:#1B70B6;}
	.st4{fill:#66A0D7;}
	.st5{fill:#1E1F1D;}
	.st6{fill:#A3201B;}
	.st7{fill:#E32D28;}
	.st8{fill:url(#SVGID_1_);}
	.st9{fill:#FFFFFF;}
	.st10{fill:#D5418F;}
	.st11{fill:#E3C724;}
	.st12{fill:#A7C833;}
	.st13{fill:#E6362C;}
	.st14{fill:#C72C28;}
	.st15{fill:#E3AB28;}
	.st16{fill:#9DC42B;}
	.st17{fill:#FADF21;}
	.st18{fill:#CA9220;}
	.st19{fill:#94C128;}
	.st20{fill:#74922B;}
	.st21{fill:#59AE33;}
	.st22{fill:#499834;}
	.st23{fill:#E62A46;}
	.st24{fill:#CD163B;}
	.st25{fill:#063E51;}
	.st26{fill:#B2B1B0;}
	.st27{fill:#E62A3B;}
	.st28{fill:#CA152C;}
	.st29{fill:url(#SVGID_2_);}
	.st30{fill:url(#SVGID_3_);}
	.st31{fill:#C71B1B;}
	.st32{fill:#E52523;}
	.st33{fill:url(#SVGID_4_);}
	.st34{fill:#E43333;}
	.st35{fill:#9C1C1B;}
	.st36{fill:#C8C7C7;}
	.st37{fill:#C39E05;}
	.st38{fill:#E5B90D;}
	.st39{fill:#F1C906;}
	.st40{fill:#F7B21C;}
	.st41{fill:#566EB3;}
	.st42{fill:#4081C2;}
	.st43{fill:#F2AABB;}
	.st44{fill:#EA6379;}
	.st45{fill:#C83C5A;}
	.st46{fill:#CF4162;}
	.st47{fill:#B01C1C;}
	.st48{fill:#E52923;}
	.st49{fill:#125B95;}
	.st50{fill:#EEEDED;}
	.st51{fill:#B1B1B0;}
	.st52{fill:#98C01E;}
	.st53{fill:url(#SVGID_5_);}
	.st54{fill:#5DC2DB;}
	.st55{fill:url(#SVGID_6_);}
	.st56{fill:url(#SVGID_7_);}
	.st57{fill:#030405;}
	.st58{fill:#8666A4;}
	.st59{fill:#AE8FC2;}
	.st60{fill:#8860A3;}
	.st61{fill:#704693;}
	.st62{fill:#C8C6C7;}
	.st63{fill:#A7C835;}
	.st64{fill:#64B335;}
	.st65{fill:#174865;}
	.st66{fill:#5895C5;}
	.st67{fill:#4F2672;}
	.st68{fill:url(#SVGID_8_);}
	.st69{fill:url(#SVGID_9_);}
	.st70{fill:url(#SVGID_10_);}
	.st71{fill:url(#SVGID_11_);}
	.st72{fill:#FAB21E;}
	.st73{fill:#FBD704;}
	.st74{fill:#FAC00F;}
</style>
<g>
	<g>
		<path class="st27" d="M753.0957,265.5815l46.6797-105.2793c10.4541-23.6074-0.292-34.3535-23.8789-23.8989l-130.0293,57.6602
			c-25.0127-10.8975-51.4717-19.0781-79.0068-24.1778L516.8906,40.3315c-9.2978-24.0693-24.4961-24.0693-33.7744,0
			l-49.9844,129.5542c-27.1552,5.023-53.2627,13.0518-77.9814,23.7139l-129.0293-57.1963
			c-23.5928-10.4546-34.3447,0.2915-23.8906,23.8989l46.0879,103.9209C178.1582,330.8389,134.415,424.979,134.415,529.3394
			c0,13.4907,0.7481,26.7763,2.1641,39.8833l43.0664,408.498h139.4356l34.8877-113.1499
			c44.7226,19.5352,94.1015,30.3711,146.0341,30.3711c51.919,0,101.3164-10.8608,146.0655-30.3711l34.83,113.0732h139.4532
			l42.9726-407.6704c1.46-13.3506,2.2608-26.8667,2.2608-40.6342C865.585,425.6909,822.4219,332.1221,753.0957,265.5815z"/>
		<path class="st28" d="M753.0957,265.5815c0,0,80.0625,169.3565,51.7109,364.1163
			c-16.4238,112.8071-38.2959,251.3344-53.7949,347.9462h69.3399l42.9726-407.6704c1.46-13.3242,2.2608-26.8667,2.2608-40.6093
			C865.585,425.6909,822.4219,332.1221,753.0957,265.5815z"/>
	</g>
	<g>
		<g id="XMLID_3_">
			<g>
				<path class="st9" d="M335.1826,436.0894c-5.4912,0-9.9092-4.4351-9.9092-9.9097c0-5.4746,4.418-9.8936,9.9092-9.8936
					c5.459,0,9.8936,4.419,9.8936,9.8936C345.0762,431.6543,340.6416,436.0894,335.1826,436.0894z"/>
				<linearGradient id="SVGID_1_" gradientUnits="userSpaceOnUse" x1="279.3799" y1="424.5633" x2="447.1133" y2="424.5633">
					<stop  offset="0" style="stop-color:#2273B7"/>
					<stop  offset="0.6" style="stop-color:#3DA4DD"/>
				</linearGradient>
				<path class="st8" d="M447.1133,424.5552c0,46.2993-37.543,83.875-83.875,83.875c-46.3154,0-83.8584-37.5757-83.8584-83.875
					c0-46.3155,37.543-83.8589,83.8584-83.8589C409.5703,340.6963,447.1133,378.2397,447.1133,424.5552z M363.2383,478.7661
					c29.957,0,54.2441-24.2871,54.2441-54.2109c0-29.9239-24.2871-54.211-54.2441-54.211c-29.9404,0-54.1944,24.2871-54.1944,54.211
					C309.0439,454.479,333.2979,478.7661,363.2383,478.7661z"/>
				<path class="st5" d="M363.2383,478.7661c-29.9404,0-54.1944-24.2871-54.1944-54.2109c0-29.9239,24.254-54.211,54.1944-54.211
					c29.957,0,54.2441,24.2871,54.2441,54.211C417.4824,454.479,393.1953,478.7661,363.2383,478.7661z M325.2734,426.1797
					c0,5.4746,4.418,9.9097,9.9092,9.9097c5.459,0,9.8936-4.4351,9.8936-9.9097c0-5.4746-4.4346-9.8936-9.8936-9.8936
					C329.6914,416.2861,325.2734,420.7051,325.2734,426.1797z M363.2383,419.373c10.9336,0,19.8037-8.854,19.8037-19.7871
					s-8.8701-19.8032-19.8037-19.8032c-10.917,0-19.7862,8.8701-19.7862,19.8032S352.3213,419.373,363.2383,419.373z"/>
				<path class="st9" d="M363.2383,508.4302c46.332,0,83.875-37.5757,83.875-83.875c0-46.3155-37.543-83.8589-83.875-83.8589
					c-46.3154,0-83.8584,37.5434-83.8584,83.8589C279.3799,470.8545,316.9229,508.4302,363.2383,508.4302z M490.1475,424.5552
					c0,70.1152-56.8096,126.9253-126.9092,126.9253c-70.0987,0-126.8926-56.8101-126.8926-126.9253
					c0-70.1153,56.7939-126.9253,126.8926-126.9253C433.3379,297.6299,490.1475,354.4399,490.1475,424.5552z"/>
				<path class="st9" d="M363.2383,419.373c-10.917,0-19.7862-8.854-19.7862-19.7871s8.8692-19.8032,19.7862-19.8032
					c10.9336,0,19.8037,8.8701,19.8037,19.8032S374.1719,419.373,363.2383,419.373z"/>
			</g>
		</g>
	</g>
	<g>
		<g id="XMLID_4_">
			<g>
				<linearGradient id="SVGID_2_" gradientUnits="userSpaceOnUse" x1="713.3564" y1="426.1888" x2="545.623" y2="426.1888">
					<stop  offset="0" style="stop-color:#2273B7"/>
					<stop  offset="0.6" style="stop-color:#3DA4DD"/>
				</linearGradient>
				<path class="st29" d="M545.623,426.1807c0,46.2993,37.543,83.875,83.875,83.875c46.3155,0,83.8584-37.5757,83.8584-83.875
					c0-46.316-37.5429-83.8589-83.8584-83.8589C583.166,342.3218,545.623,379.8647,545.623,426.1807z M629.498,480.3916
					c-29.957,0-54.2431-24.2871-54.2431-54.2109c0-29.9244,24.2861-54.211,54.2431-54.211c29.9405,0,54.1944,24.2866,54.1944,54.211
					C683.6924,456.1045,659.4385,480.3916,629.498,480.3916z"/>
				<path class="st9" d="M629.498,420.998c10.917,0,19.7862-8.8535,19.7862-19.7866s-8.8692-19.8032-19.7862-19.8032
					c-10.9335,0-19.8037,8.8701-19.8037,19.8032S618.5645,420.998,629.498,420.998z"/>
				<path class="st9" d="M629.498,510.0557c-46.332,0-83.875-37.5757-83.875-83.875c0-46.316,37.543-83.8589,83.875-83.8589
					c46.3155,0,83.8584,37.5429,83.8584,83.8589C713.3564,472.48,675.8135,510.0557,629.498,510.0557z M502.5889,426.1807
					c0,70.1147,56.8095,126.9253,126.9091,126.9253c70.0987,0,126.8926-56.8106,126.8926-126.9253
					c0-70.1153-56.7939-126.9253-126.8926-126.9253C559.3984,299.2554,502.5889,356.0654,502.5889,426.1807z"/>
				<path class="st5" d="M575.2549,426.1807c0,29.9238,24.2861,54.2109,54.2431,54.2109c29.9405,0,54.1944-24.2871,54.1944-54.2109
					c0-29.9244-24.2539-54.211-54.1944-54.211C599.541,371.9697,575.2549,396.2563,575.2549,426.1807z M629.498,420.998
					c-10.9335,0-19.8037-8.8535-19.8037-19.7866s8.8702-19.8032,19.8037-19.8032c10.917,0,19.7862,8.8701,19.7862,19.8032
					S640.415,420.998,629.498,420.998z M657.5537,437.7148c-5.459,0-9.8935-4.435-9.8935-9.9096
					c0-5.4746,4.4345-9.8936,9.8935-9.8936c5.4912,0,9.9092,4.419,9.9092,9.8936
					C667.4629,433.2798,663.0449,437.7148,657.5537,437.7148z"/>
				<path class="st9" d="M647.6602,427.8052c0,5.4746,4.4345,9.9096,9.8935,9.9096c5.4912,0,9.9092-4.435,9.9092-9.9096
					c0-5.4746-4.418-9.8936-9.9092-9.8936C652.0947,417.9116,647.6602,422.3306,647.6602,427.8052z"/>
			</g>
		</g>
	</g>
	<g>
		<g id="XMLID_31_">
			<g>
				<path class="st31" d="M349.5273,727.0283c25.3848,22.5215,74.0674,56.6919,135.6612,56.6919
					c86.1054,0,128.4785-33.6362,133.4785-37.8594l0.0478,0.049c-48.5371,47.9062-141.1464,64.1176-200.1679,52.0804
					c-32.374-6.601-61.6905-24.3173-76.9805-52.5659C341.5664,745.4243,343.2656,737.9492,349.5273,727.0283z"/>
				<path class="st5" d="M333.1211,723.3398c-11.6973-48.5859,4.9512-81.7368,34.5586-104.0156
					c69.3115-52.1294,267.1016-86.6391,282.3906,38.0532c2.961,24.2686-1.7471,45.334-11.8916,63.3414
					c0,0-17.4248-91.7842-148.0391-72.5635c-90.1337,13.251-126.6337,54.5562-140.6123,78.873
					c-6.2617,10.9209-7.9609,18.396-7.9609,18.396C337.9268,738.6777,335.0146,731.2998,333.1211,723.3398z"/>
				<path class="st32" d="M638.1787,720.7188c-5.1455,9.2221-11.7461,17.5703-19.4639,25.1909l-0.0478-0.049
					c-5,4.2232-47.3731,37.8594-133.4785,37.8594c-61.5938,0-110.2764-34.1704-135.6612-56.6919
					c13.9786-24.3169,50.4786-65.622,140.6123-78.873C620.7539,628.9346,638.1787,720.7188,638.1787,720.7188z"/>
			</g>
		</g>
	</g>
</g>
</svg>
