<?xml version="1.0" encoding="utf-8"?>
<!-- Generator: Adobe Illustrator 22.1.0, SVG Export Plug-In . SVG Version: 6.00 Build 0)  -->
<svg version="1.1" id="monster" xmlns="http://www.w3.org/2000/svg" xmlns:xlink="http://www.w3.org/1999/xlink" x="0px" y="0px"
	 viewBox="0 0 1000 1000" style="enable-background:new 0 0 1000 1000;" xml:space="preserve">
<style type="text/css">
	.st0{fill:#C783B7;}
	.st1{fill:#125785;}
	.st2{fill:#8E4C87;}
	.st3{fill:#1B70B6;}
	.st4{fill:#66A0D7;}
	.st5{fill:#1E1F1D;}
	.st6{fill:#A3201B;}
	.st7{fill:#E32D28;}
	.st8{fill:url(#SVGID_1_);}
	.st9{fill:#FFFFFF;}
	.st10{fill:#D5418F;}
	.st11{fill:#E3C724;}
	.st12{fill:#A7C833;}
	.st13{fill:#E6362C;}
	.st14{fill:#C72C28;}
	.st15{fill:#E3AB28;}
	.st16{fill:#9DC42B;}
	.st17{fill:#FADF21;}
	.st18{fill:#CA9220;}
	.st19{fill:#94C128;}
	.st20{fill:#74922B;}
	.st21{fill:#59AE33;}
	.st22{fill:#499834;}
	.st23{fill:#E62A46;}
	.st24{fill:#CD163B;}
	.st25{fill:#063E51;}
	.st26{fill:#B2B1B0;}
	.st27{fill:#E62A3B;}
	.st28{fill:#CA152C;}
	.st29{fill:url(#SVGID_2_);}
	.st30{fill:url(#SVGID_3_);}
	.st31{fill:#C71B1B;}
	.st32{fill:#E52523;}
	.st33{fill:url(#SVGID_4_);}
	.st34{fill:#E43333;}
	.st35{fill:#9C1C1B;}
	.st36{fill:#C8C7C7;}
	.st37{fill:#C39E05;}
	.st38{fill:#E5B90D;}
	.st39{fill:#F1C906;}
	.st40{fill:#F7B21C;}
	.st41{fill:#566EB3;}
	.st42{fill:#4081C2;}
	.st43{fill:#F2AABB;}
	.st44{fill:#EA6379;}
	.st45{fill:#C83C5A;}
	.st46{fill:#CF4162;}
	.st47{fill:#B01C1C;}
	.st48{fill:#E52923;}
	.st49{fill:#125B95;}
	.st50{fill:#EEEDED;}
	.st51{fill:#B1B1B0;}
	.st52{fill:#98C01E;}
	.st53{fill:url(#SVGID_5_);}
	.st54{fill:#5DC2DB;}
	.st55{fill:url(#SVGID_6_);}
	.st56{fill:url(#SVGID_7_);}
	.st57{fill:#030405;}
	.st58{fill:#8666A4;}
	.st59{fill:#AE8FC2;}
	.st60{fill:#8860A3;}
	.st61{fill:#704693;}
	.st62{fill:#C8C6C7;}
	.st63{fill:#A7C835;}
	.st64{fill:#64B335;}
	.st65{fill:#174865;}
	.st66{fill:#5895C5;}
	.st67{fill:#4F2672;}
	.st68{fill:url(#SVGID_8_);}
	.st69{fill:url(#SVGID_9_);}
	.st70{fill:url(#SVGID_10_);}
	.st71{fill:url(#SVGID_11_);}
	.st72{fill:#FAB21E;}
	.st73{fill:#FBD704;}
	.st74{fill:#FAC00F;}
</style>
<g>
	<path class="st10" d="M506.542,185.1943c0,0,240.6704-49.9463,240.6704,258.8311c0,308.7705,0,534.8359,0,534.8359h-90.8267
		V761.4707c0,0-68.1088,27.6582-149.8437,27.6582h-13.0689c-81.7343,0-149.8544-27.6582-149.8544-27.6582v217.3906h-90.8169
		c0,0,0-226.0654,0-534.8359c0-308.7774,240.6713-258.8311,240.6713-258.8311H506.542z"/>
	<g>
		<g id="XMLID_13_">
			<g>
				<path class="st5" d="M657.1436,574.4692c0,42.0816-16.5415,80.2925-43.4878,108.4956c-2.8453-4.4663-5.9551-8.767-9.313-12.8525
					c-24.6963-30.2383-62.2617-49.542-104.3433-49.542c-42.0981,0-79.6807,19.3037-104.3769,49.542
					c-3.3413,4.0855-6.4512,8.3862-9.2964,12.8525c-26.9297-28.2031-43.4712-66.414-43.4712-108.4956
					c0-10.9008,1.0918-21.5703,3.2256-31.809c37.1855,35.0844,92.3349,57.2993,153.9189,57.2993
					c61.5342,0,116.6836-22.2148,153.9019-57.2993C656.0186,552.8989,657.1436,563.5684,657.1436,574.4692z"/>
				<path class="st7" d="M499.9995,620.5703c42.0816,0,79.647,19.3037,104.3433,49.542
					c-25.854,28.2363-63.0396,45.9849-104.3433,45.9849c-41.3208,0-78.4897-17.7487-104.3769-45.9849
					C420.3188,639.874,457.9014,620.5703,499.9995,620.5703z"/>
				<path class="st6" d="M604.3428,670.1123c3.3579,4.0855,6.4677,8.3862,9.313,12.8525
					c-28.6001,29.9732-68.9615,48.6485-113.6563,48.6485c-44.7119,0-85.0566-18.6753-113.6733-48.6485
					c2.8452-4.4663,5.9551-8.767,9.2964-12.8525c25.8872,28.2363,63.0561,45.9849,104.3769,45.9849
					C541.3032,716.0972,578.4888,698.3486,604.3428,670.1123z"/>
			</g>
		</g>
	</g>
	<g>
		<g id="XMLID_12_">
			<g>
				<path class="st9" d="M253.7603,445.2695c3.4326,22.3653,4.2011,35.7202,4.2011,35.7559
					c-8.3847-24.8325-16.4297-49.6289-23.8491-74.8369c-1.8232-6.3111-3.6113-12.6397-5.2739-19.0576
					c-0.8042-3.2539-1.6626-6.2037-2.3775-10.1372c-0.6079-3.754-0.8403-7.7408-0.2324-11.9244
					c0.5542-4.2373,2.145-8.5815,4.8091-12.2641c2.6636-3.6651,6.2036-6.4717,9.8506-8.3848
					c3.647-1.9307,7.437-3.1465,11.1557-3.8975c3.7725-0.7866,7.4195-1.1621,11.2989-1.1083h0.0356h98.0249
					c0,0-38.4736,10.852-98.1499,13.8017h-0.1606c-7.6699,0.3399-16.6983,2.9497-20.2378,8.0093
					c-1.6987,2.2886-2.5747,5.2558-2.6641,8.7602c-0.125,3.522,0.6079,7.1333,1.502,11.5132l4.9521,23.9385
					C249.7021,420.6338,252.0796,434.0781,253.7603,445.2695z"/>
				<path class="st5" d="M754.3413,461.8423c-0.4111,0.4292-6.6147,8.4565-16.0005,21.6504
					c-4.8989,6.7754-10.709,14.874-17.5205,23.6167c-6.8115,8.7241-14.5884,18.1816-24.0815,26.6914
					c-9.4575,8.5097-19.3618,14.374-29.3555,17.6098c-5.0415,1.6446-9.8867,2.5567-14.8389,3.2178
					c-4.8447,0.751-9.3501,1.3052-13.5331,1.7344c-8.2954,0.8403-15.125,1.1621-19.8984,1.3052l-7.4014,0.1786
					c7.7949,2.5029,15.8223,4.2905,23.9029,5.3813c4.0405,0.5542,8.081,0.9297,12.1211,1.162
					c2.038,0.0894,4.0585,0.1431,6.0966,0.1964l3.0573,0.0362c1.0903,0,2.145-0.0538,3.2358-0.0894
					c8.5811-0.3755,17.1982-2.4497,25.0825-6.0073c7.8487-3.4859,14.9458-8.3848,21.1856-13.9087
					c12.4965-11.2451,21.7036-24.8862,29.3193-38.9741C743.3105,491.4839,749.2998,476.7705,754.3413,461.8423z M257.9614,481.0254
					c0-0.0357-0.7685-13.3906-4.2011-35.7559c-1.6807-11.1914-4.0582-24.6357-7.1153-39.832l-4.9521-23.9385
					c-0.8941-4.3799-1.627-7.9912-1.502-11.5132c0.0894-3.5044,0.9654-6.4716,2.6641-8.7602
					c3.5395-5.0596,12.5679-7.6694,20.2378-8.0093h0.1606c59.6763-2.9497,98.1499-13.8017,98.1499-13.8017h-98.0249h-0.0356
					c-3.8794-0.0538-7.5264,0.3217-11.2989,1.1083c-3.7187,0.751-7.5087,1.9668-11.1557,3.8975
					c-3.647,1.9131-7.187,4.7197-9.8506,8.3848c-2.6641,3.6826-4.2549,8.0268-4.8091,12.2641
					c-0.6079,4.1836-0.3755,8.1704,0.2324,11.9244c0.7149,3.9335,1.5733,6.8833,2.3775,10.1372
					c1.6626,6.4179,3.4507,12.7465,5.2739,19.0576C241.5317,431.3965,249.5767,456.1929,257.9614,481.0254z M520.9277,386.8984
					c0,0,3.2178-19.0937-20.9174-19.0937c-24.1709,0-20.9351,19.0937-20.9351,19.0937s0,33.8785,0,78.9488
					c0,45.1059-46.7324,116.5102-140.1445,116.5102S218.1475,412.6958,208.4756,367.8047
					c-9.6719-44.8735,37.043-48.5205,37.043-48.5205h191.6689h125.6279h191.6509c0,0,46.7153,3.647,37.061,48.5205
					c-9.6718,44.8911-37.061,214.5527-130.4726,214.5527c-93.4121,0-140.127-71.4043-140.127-116.5102
					C520.9277,420.7769,520.9277,386.8984,520.9277,386.8984z"/>
				<path class="st9" d="M611.7114,557.8467l7.4014-0.1786c4.7734-0.1431,11.603-0.4649,19.8984-1.3052
					c4.183-0.4292,8.6885-0.9834,13.5331-1.7344c4.9522-0.6611,9.7974-1.5732,14.8389-3.2178
					c9.9937-3.2358,19.898-9.1001,29.3555-17.6098c9.4931-8.5098,17.27-17.9673,24.0815-26.6914
					c6.8115-8.7427,12.6216-16.8413,17.5205-23.6167c9.3858-13.1939,15.5894-21.2212,16.0005-21.6504
					c-5.0415,14.9282-11.0308,29.6416-18.6289,43.8008c-7.6157,14.0879-16.8228,27.729-29.3193,38.9741
					c-6.2398,5.5239-13.3369,10.4228-21.1856,13.9087c-7.8843,3.5576-16.5014,5.6318-25.0825,6.0073
					c-1.0908,0.0356-2.1455,0.0894-3.2358,0.0894l-3.0573-0.0362c-2.0381-0.0532-4.0586-0.1069-6.0966-0.1964
					c-4.0401-0.2324-8.0806-0.6078-12.1211-1.162C627.5337,562.1372,619.5063,560.3496,611.7114,557.8467z"/>
			</g>
		</g>
	</g>
	<g>
		<g id="XMLID_296_">
			<g>
				<path class="st11" d="M500.0142,269.6138c36.0415-5.4805,61.6723-18.3975,78.9497-30.9278
					c1.5893,11.3282,2.4653,23.7564,2.4653,37.3457v0.0205c-21.6377,8.6792-51.5264,13.0191-81.415,13.0191v-0.0205V269.6138z"/>
				<path class="st12" d="M608.71,208.6953c0,0-8.6792,14.71-29.7461,29.9907c-11.5928-84.0229-60.5114-108.3291-62.2432-109.1645
					c43.7231,6.438,79.3779,37.7734,92.0303,79.1533L608.71,208.6953z"/>
				<path class="st13" d="M491.2939,81.6421c0-4.8081,3.8916-8.7202,8.7203-8.7202c2.4243,0,4.5839,0.978,6.1528,2.5469
					c1.5688,1.5893,2.5469,3.769,2.5469,6.1733v46.9829c-2.8731-0.2241-5.7661-0.3262-8.6997-0.3262
					c-2.9341,0-5.8477,0.1021-8.7203,0.3262V81.6421z"/>
				<path class="st14" d="M418.6602,269.125c-0.0611,2.2617-0.1021,4.564-0.1021,6.9067
					c-7.1103-2.852-13.3042-6.1733-18.3164-9.9629C406.5576,267.271,412.6904,268.2896,418.6602,269.125z"/>
				<path class="st15" d="M296.6802,58.2935c0-20.5372,16.605-37.1626,37.1621-37.1626c4.8086,0,9.3725,0.9375,13.6509,2.6079
					l142.456,31.4375c1.3653-4.2993,5.3379-7.4366,10.065-7.4366c4.7265,0,8.6997,3.1373,10.0239,7.4366l142.5171-31.4375
					c4.2173-1.6704,8.8017-2.6079,13.6098-2.6079c20.5371,0,37.1831,16.6254,37.1831,37.1626
					c0,20.5371-16.646,37.1626-37.1831,37.1626c-4.8081,0-9.3925-0.9375-13.6098-2.608l-142.5171-31.458
					c-1.3242,4.3194-5.2974,7.4571-10.0239,7.4571c-4.7271,0-8.6997-3.1377-10.065-7.4571l-142.456,31.458
					c-4.2784,1.6705-8.8423,2.608-13.6509,2.608C313.2852,95.4561,296.6802,78.8306,296.6802,58.2935z"/>
				<path class="st15" d="M418.6602,269.125c2.6894-98.6514,62.7319-138.3403,64.6469-139.6035
					c2.6284-0.3872,5.2974-0.6929,7.9868-0.8965c2.8726-0.2241,5.7862-0.3262,8.7203-0.3262v141.315
					C477.2358,273.0776,450.3013,273.5664,418.6602,269.125z"/>
				<path class="st16" d="M581.4292,276.0317c0-13.5893-0.876-26.0175-2.4653-37.3457
					c21.0669-15.2807,29.7461-29.9907,29.7461-29.9907l0.041-0.0205c3.2392,10.5337,4.9713,21.7188,4.9713,33.312
					c0,14.8936-12.795,26.2417-32.293,34.0654V276.0317z"/>
				<path class="st17" d="M516.7207,129.5215c1.7319,0.8354,50.6504,25.1416,62.2432,109.1645
					c-17.2774,12.5303-42.9082,25.4473-78.9497,30.9278v-141.315c2.9336,0,5.8266,0.1021,8.6997,0.3262
					C511.4233,128.8286,514.0723,129.1343,516.7207,129.5215z"/>
				<path class="st13" d="M386.3262,241.9868c0-57.1089,42.1133-104.3974,96.9809-112.4653
					c-1.915,1.2632-61.9575,40.9521-64.6469,139.6035c-5.9698-0.8354-12.1026-1.854-18.4185-3.0562
					C391.481,259.4678,386.3262,251.4404,386.3262,241.9868z"/>
				<path class="st18" d="M418.5581,276.0317c0-2.3427,0.041-4.645,0.1021-6.9067c31.6411,4.4414,58.5756,3.9526,81.354,0.4888
					v19.437v0.0205C470.0845,289.0713,440.1753,284.7314,418.5581,276.0317z"/>
			</g>
		</g>
	</g>
</g>
</svg>
