<?xml version="1.0" encoding="utf-8"?>
<!-- Generator: Adobe Illustrator 22.1.0, SVG Export Plug-In . SVG Version: 6.00 Build 0)  -->
<svg version="1.1" id="monster" xmlns="http://www.w3.org/2000/svg" xmlns:xlink="http://www.w3.org/1999/xlink" x="0px" y="0px"
	 viewBox="0 0 1000 1000" style="enable-background:new 0 0 1000 1000;" xml:space="preserve">
<style type="text/css">
	.st0{fill:#C783B7;}
	.st1{fill:#125785;}
	.st2{fill:#8E4C87;}
	.st3{fill:#1B70B6;}
	.st4{fill:#66A0D7;}
	.st5{fill:#1E1F1D;}
	.st6{fill:#A3201B;}
	.st7{fill:#E32D28;}
	.st8{fill:url(#SVGID_1_);}
	.st9{fill:#FFFFFF;}
	.st10{fill:#D5418F;}
	.st11{fill:#E3C724;}
	.st12{fill:#A7C833;}
	.st13{fill:#E6362C;}
	.st14{fill:#C72C28;}
	.st15{fill:#E3AB28;}
	.st16{fill:#9DC42B;}
	.st17{fill:#FADF21;}
	.st18{fill:#CA9220;}
	.st19{fill:#94C128;}
	.st20{fill:#74922B;}
	.st21{fill:#59AE33;}
	.st22{fill:#499834;}
	.st23{fill:#E62A46;}
	.st24{fill:#CD163B;}
	.st25{fill:#063E51;}
	.st26{fill:#B2B1B0;}
	.st27{fill:#E62A3B;}
	.st28{fill:#CA152C;}
	.st29{fill:url(#SVGID_2_);}
	.st30{fill:url(#SVGID_3_);}
	.st31{fill:#C71B1B;}
	.st32{fill:#E52523;}
	.st33{fill:url(#SVGID_4_);}
	.st34{fill:#E43333;}
	.st35{fill:#9C1C1B;}
	.st36{fill:#C8C7C7;}
	.st37{fill:#C39E05;}
	.st38{fill:#E5B90D;}
	.st39{fill:#F1C906;}
	.st40{fill:#F7B21C;}
	.st41{fill:#566EB3;}
	.st42{fill:#4081C2;}
	.st43{fill:#F2AABB;}
	.st44{fill:#EA6379;}
	.st45{fill:#C83C5A;}
	.st46{fill:#CF4162;}
	.st47{fill:#B01C1C;}
	.st48{fill:#E52923;}
	.st49{fill:#125B95;}
	.st50{fill:#EEEDED;}
	.st51{fill:#B1B1B0;}
	.st52{fill:#98C01E;}
	.st53{fill:url(#SVGID_5_);}
	.st54{fill:#5DC2DB;}
	.st55{fill:url(#SVGID_6_);}
	.st56{fill:url(#SVGID_7_);}
	.st57{fill:#030405;}
	.st58{fill:#8666A4;}
	.st59{fill:#AE8FC2;}
	.st60{fill:#8860A3;}
	.st61{fill:#704693;}
	.st62{fill:#C8C6C7;}
	.st63{fill:#A7C835;}
	.st64{fill:#64B335;}
	.st65{fill:#174865;}
	.st66{fill:#5895C5;}
	.st67{fill:#4F2672;}
	.st68{fill:url(#SVGID_8_);}
	.st69{fill:url(#SVGID_9_);}
	.st70{fill:url(#SVGID_10_);}
	.st71{fill:url(#SVGID_11_);}
	.st72{fill:#FAB21E;}
	.st73{fill:#FBD704;}
	.st74{fill:#FAC00F;}
</style>
<g>
	<linearGradient id="SVGID_1_" gradientUnits="userSpaceOnUse" x1="324.4117" y1="1037.2003" x2="704.9418" y2="-8.2977">
		<stop  offset="0" style="stop-color:#97C11E"/>
		<stop  offset="0.1091" style="stop-color:#A4C622"/>
		<stop  offset="0.2742" style="stop-color:#BED019"/>
		<stop  offset="0.4481" style="stop-color:#D0D70F"/>
		<stop  offset="0.6218" style="stop-color:#DADA08"/>
		<stop  offset="0.7939" style="stop-color:#DEDC06"/>
	</linearGradient>
	<path class="st8" d="M829.1616,928.8623h-17.2383V56.0713c0-20.0654-16.2441-36.2959-36.2807-36.2959H224.3569
		c-20.0215,0-36.2656,16.2305-36.2656,36.2959v872.791H170.853c-9.2749,0-16.7876,7.4844-16.7876,16.7617v17.8535
		c0,9.2471,7.5127,16.7471,16.7876,16.7471h177.6612c9.2363,0,16.7509-7.5,16.7509-16.7471V945.624
		c0-9.2773-7.5146-16.7617-16.7509-16.7617h-75.4121V662.2451h453.8242v266.6172h-75.4424c-9.2637,0-16.7608,7.4844-16.7608,16.7617
		v17.8535c0,9.2471,7.4971,16.7471,16.7608,16.7471h177.6777c9.2456,0,16.7729-7.5,16.7729-16.7471V945.624
		C845.9346,936.3467,838.4072,928.8623,829.1616,928.8623z"/>
	<g id="XMLID_23_">
		<g>
			<path class="st57" d="M356.8379,292.4893c-45.7798,0-82.8462-37.1133-82.8462-82.7998c0-45.7793,37.0664-82.9405,82.8462-82.9405
				c45.7329,0,82.8467,37.1612,82.8467,82.9405C439.6846,255.376,402.5708,292.4893,356.8379,292.4893z M390.8906,175.167
				c0-18.8399-15.2602-34.0996-34.0527-34.0996c-18.8394,0-34.0991,15.2597-34.0991,34.0996
				c0,18.792,15.2597,34.0518,34.0991,34.0518C375.6304,209.2188,390.8906,193.959,390.8906,175.167z M335.0786,223.2539
				c0-9.3721-7.6299-17.0498-17.0498-17.0498c-9.4199,0-17.0498,7.6777-17.0498,17.0498c0,9.3731,7.6299,17.0977,17.0498,17.0977
				C327.4487,240.3516,335.0786,232.627,335.0786,223.2539z"/>
			<path class="st9" d="M322.7388,175.167c0-18.8399,15.2597-34.0996,34.0991-34.0996c18.7925,0,34.0527,15.2597,34.0527,34.0996
				c0,18.792-15.2602,34.0518-34.0527,34.0518C337.9985,209.2188,322.7388,193.959,322.7388,175.167z"/>
			<path class="st9" d="M318.0288,206.2041c9.4199,0,17.0498,7.6777,17.0498,17.0498c0,9.3731-7.6299,17.0977-17.0498,17.0977
				c-9.4199,0-17.0498-7.7246-17.0498-17.0977C300.979,213.8818,308.6089,206.2041,318.0288,206.2041z"/>
			<path class="st9" d="M356.8379,346.6055c-75.6401,0-136.9155-61.3223-136.9155-136.916
				c0-75.6875,61.2754-136.9629,136.9155-136.9629c75.5937,0,136.916,61.2754,136.916,136.9629
				C493.7539,285.2832,432.4316,346.6055,356.8379,346.6055z M356.8379,292.4893c45.7329,0,82.8467-37.1133,82.8467-82.7998
				c0-45.7793-37.1138-82.9405-82.8467-82.9405c-45.7798,0-82.8462,37.1612-82.8462,82.9405
				C273.9917,255.376,311.0581,292.4893,356.8379,292.4893z"/>
		</g>
	</g>
	<g id="XMLID_22_">
		<g>
			<path class="st9" d="M730.2935,209.6914c0,45.7334-37.0664,82.7998-82.8462,82.7998c-45.7329,0-82.8467-37.0664-82.8467-82.7998
				c0-45.8262,37.1138-82.9404,82.8467-82.9404C693.2271,126.751,730.2935,163.8652,730.2935,209.6914z M510.5313,209.6914
				c0,75.5469,61.3227,136.8691,136.916,136.8691c75.6401,0,136.9155-61.3222,136.9155-136.8691
				c0-75.6396-61.2754-136.915-136.9155-136.915C571.854,72.7764,510.5313,134.0518,510.5313,209.6914z"/>
			<path class="st9" d="M686.2563,206.2061c-9.4194,0-17.0498,7.6777-17.0498,17.0976c0,9.3252,7.6304,17.0488,17.0498,17.0488
				c9.42,0,17.0499-7.7236,17.0499-17.0488C703.3062,213.8838,695.6763,206.2061,686.2563,206.2061z"/>
			<path class="st9" d="M681.5464,175.1211c0-18.7451-15.2598-34.0049-34.0991-34.0049c-18.7925,0-34.0523,15.2598-34.0523,34.0049
				c0,18.8867,15.2598,34.0996,34.0523,34.0996C666.2866,209.2207,681.5464,194.0078,681.5464,175.1211z"/>
			<path class="st57" d="M564.6006,209.6914c0,45.7334,37.1138,82.7998,82.8467,82.7998c45.7798,0,82.8462-37.0664,82.8462-82.7998
				c0-45.8262-37.0664-82.9404-82.8462-82.9404C601.7144,126.751,564.6006,163.8652,564.6006,209.6914z M613.395,175.1211
				c0-18.7451,15.2598-34.0049,34.0523-34.0049c18.8393,0,34.0991,15.2598,34.0991,34.0049
				c0,18.8867-15.2598,34.0996-34.0991,34.0996C628.6548,209.2207,613.395,194.0078,613.395,175.1211z M669.2065,223.3037
				c0-9.4199,7.6304-17.0976,17.0498-17.0976c9.42,0,17.0499,7.6777,17.0499,17.0976c0,9.3252-7.6299,17.0488-17.0499,17.0488
				C676.8369,240.3525,669.2065,232.6289,669.2065,223.3037z"/>
		</g>
	</g>
	<g>
		<g id="XMLID_24_">
			<g>
				<polygon class="st36" points="616.7383,377.0469 616.7383,388.8262 361.249,388.8262 361.249,377.0469 490.9351,377.0469 				
					"/>
				<path class="st5" d="M540.9927,438.1299l23.747-33.9248l51.9986,100.4922V388.8262v-11.7793h33.2085v68.4326
					c0,0-1.0366,82.1914-42.877,141.2959c0,0-3.2607-4.8818-10.1206-11.6856c-15.5488-15.4355-49.6054-40.6709-106.0141-40.6709
					c-57.0684,0-91.2569,25.8204-106.5606,41.2178c-6.4834,6.502-9.5742,11.1387-9.5742,11.1387
					c-41.8403-59.1045-42.8579-141.2959-42.8579-141.2959v-68.4326h29.3066v11.7793v115.8711l52.0176-100.4922l23.7285,33.9248
					l25.2739-30.0615l28.6661,32.7754l24.8027-32.7754L540.9927,438.1299z"/>
				<path class="st35" d="M384.3745,575.6367c22.0318,29.3633,55.4478,51.8291,106.1084,51.8291
					c50.9243,0,84.415-22.7109,106.4282-52.3564l0.0381-0.0196c6.8599,6.8038,10.1206,11.6856,10.1206,11.6856
					c-23.4834,33.208-59.8579,59.123-116.1347,59.123c-56.2959,0-92.6514-25.915-116.1348-59.123
					C374.8003,586.7754,377.8911,582.1387,384.3745,575.6367z"/>
				<polygon class="st9" points="413.2666,404.2051 361.249,504.6973 361.249,388.8262 616.7383,388.8262 616.7383,504.6973 
					564.7397,404.2051 540.9927,438.1299 515.7378,408.0684 490.9351,440.8438 462.269,408.0684 436.9951,438.1299 				"/>
				<path class="st34" d="M490.4829,627.4658c-50.6606,0-84.0766-22.4658-106.1084-51.8291
					c15.3037-15.3974,49.4922-41.2178,106.5606-41.2178c56.4087,0,90.4653,25.2354,106.0141,40.6709l-0.0381,0.0196
					C574.8979,604.7549,541.4072,627.4658,490.4829,627.4658z"/>
			</g>
		</g>
	</g>
</g>
</svg>
