<?xml version="1.0" encoding="utf-8"?>
<!-- Generator: Adobe Illustrator 22.1.0, SVG Export Plug-In . SVG Version: 6.00 Build 0)  -->
<svg version="1.1" id="monster" xmlns="http://www.w3.org/2000/svg" xmlns:xlink="http://www.w3.org/1999/xlink" x="0px" y="0px"
	 viewBox="0 0 1000 1000" style="enable-background:new 0 0 1000 1000;" xml:space="preserve">
<style type="text/css">
	.st0{fill:#C783B7;}
	.st1{fill:#125785;}
	.st2{fill:#8E4C87;}
	.st3{fill:#1B70B6;}
	.st4{fill:#66A0D7;}
	.st5{fill:#1E1F1D;}
	.st6{fill:#A3201B;}
	.st7{fill:#E32D28;}
	.st8{fill:url(#SVGID_1_);}
	.st9{fill:#FFFFFF;}
	.st10{fill:#D5418F;}
	.st11{fill:#E3C724;}
	.st12{fill:#A7C833;}
	.st13{fill:#E6362C;}
	.st14{fill:#C72C28;}
	.st15{fill:#E3AB28;}
	.st16{fill:#9DC42B;}
	.st17{fill:#FADF21;}
	.st18{fill:#CA9220;}
	.st19{fill:#94C128;}
	.st20{fill:#74922B;}
	.st21{fill:#59AE33;}
	.st22{fill:#499834;}
	.st23{fill:#E62A46;}
	.st24{fill:#CD163B;}
	.st25{fill:#063E51;}
	.st26{fill:#B2B1B0;}
	.st27{fill:#E62A3B;}
	.st28{fill:#CA152C;}
	.st29{fill:url(#SVGID_2_);}
	.st30{fill:url(#SVGID_3_);}
	.st31{fill:#C71B1B;}
	.st32{fill:#E52523;}
	.st33{fill:url(#SVGID_4_);}
	.st34{fill:#E43333;}
	.st35{fill:#9C1C1B;}
	.st36{fill:#C8C7C7;}
	.st37{fill:#C39E05;}
	.st38{fill:#E5B90D;}
	.st39{fill:#F1C906;}
	.st40{fill:#F7B21C;}
	.st41{fill:#566EB3;}
	.st42{fill:#4081C2;}
	.st43{fill:#F2AABB;}
	.st44{fill:#EA6379;}
	.st45{fill:#C83C5A;}
	.st46{fill:#CF4162;}
	.st47{fill:#B01C1C;}
	.st48{fill:#E52923;}
	.st49{fill:#125B95;}
	.st50{fill:#EEEDED;}
	.st51{fill:#B1B1B0;}
	.st52{fill:#98C01E;}
	.st53{fill:url(#SVGID_5_);}
	.st54{fill:#5DC2DB;}
	.st55{fill:url(#SVGID_6_);}
	.st56{fill:url(#SVGID_7_);}
	.st57{fill:#030405;}
	.st58{fill:#8666A4;}
	.st59{fill:#AE8FC2;}
	.st60{fill:#8860A3;}
	.st61{fill:#704693;}
	.st62{fill:#C8C6C7;}
	.st63{fill:#A7C835;}
	.st64{fill:#64B335;}
	.st65{fill:#174865;}
	.st66{fill:#5895C5;}
	.st67{fill:#4F2672;}
	.st68{fill:url(#SVGID_8_);}
	.st69{fill:url(#SVGID_9_);}
	.st70{fill:url(#SVGID_10_);}
	.st71{fill:url(#SVGID_11_);}
	.st72{fill:#FAB21E;}
	.st73{fill:#FBD704;}
	.st74{fill:#FAC00F;}
</style>
<g>
	<g>
		<g id="XMLID_236_">
			<g>
				<path class="st0" d="M882.6821,83.1333c18.7749-17.6367,49.7676,12.5161,57.6787,63.0151
					c-20.5898-13.8169-42.832-15.0898-57.3803-13.8979C887.2065,103.75,882.8721,83.9731,882.6821,83.1333z"/>
				<path class="st1" d="M874.9341,164.8418c-10.2676-1.436-17.772-1.3003-18.3682-1.2734
					c4.6055-8.9405,8.1548-18.4493,10.2949-28.5547c0.5689-0.1895,6.7456-1.9776,16.1197-2.7632
					C881.5444,142.1929,879.0249,153.1924,874.9341,164.8418z"/>
				<path class="st0" d="M917.8745,270.7432c-3.6846-47.7085-34.4604-68.4336-55.9717-77.1573
					c5.5542-9.8339,9.7803-19.479,13.0313-28.7441c21.5923,2.9531,55.457,12.7871,62.9883,45.1348
					C933.7773,230.7832,927.0854,251.2642,917.8745,270.7432z"/>
				<path class="st1" d="M791.0854,232.2729c0,0,8.7232,7.9107,19.3707,21.5381c-23.9766,19.6958-55.5113,38.3077-96.853,53.9937
					l-6.2314-37.0342l23.4072-6.2851C730.7788,264.4854,759.686,253.5942,791.0854,232.2729z"/>
				<path class="st2" d="M882.6821,83.1333c0.19,0.8398,4.5244,20.6167,0.2984,49.1172
					c-9.3741,0.7856-15.5508,2.5737-16.1197,2.7632c0.8399-3.9551,1.4629-7.9922,1.8423-12.1099
					C870.5995,102.3955,875.8281,89.5811,882.6821,83.1333z"/>
				<path class="st3" d="M810.4561,253.811c17.5825,22.5943,40.3935,60.9024,37.4404,105.1158
					c-31.2637,24.5722-70.2759,42.6425-117.1177,50.77L713.603,307.8047C754.9448,292.1187,786.4795,273.5068,810.4561,253.811z"/>
				<path class="st1" d="M840.8525,187.5986c0,0,9.1031,1.1382,21.0503,5.9873c-5.039,9.0489-11.1884,18.2598-18.6391,27.417
					c-13.0581-8.1816-23.6509-11.0263-23.6509-11.0263C827.1714,203.1494,834.4048,195.6992,840.8525,187.5986z"/>
				<path class="st0" d="M847.8965,358.9268c2.9531-44.2134-19.8579-82.5215-37.4404-105.1158
					c13.0581-10.7011,23.8676-21.7275,32.8076-32.8081c21.2671,13.3291,49.0903,40.8003,48.4404,93.1411
					C879.377,330.5889,864.7749,345.7061,847.8965,358.9268z"/>
				<path class="st2" d="M856.5659,163.5684c0.5962-0.0269,8.1006-0.1626,18.3682,1.2734
					c-3.251,9.2651-7.4771,18.9102-13.0313,28.7441c-11.9472-4.8491-21.0503-5.9873-21.0503-5.9873
					c5.9873-7.477,11.3247-15.4961,15.6866-24.0302C856.5391,163.5684,856.5391,163.5684,856.5659,163.5684z"/>
				<path class="st3" d="M937.9224,209.9766c-7.5313-32.3477-41.396-42.1817-62.9883-45.1348
					c4.0908-11.6494,6.6103-22.6489,8.0464-32.5913c14.5483-1.1919,36.7905,0.081,57.3803,13.8979
					c2.2486,14.3858,2.628,30.4512,0.2979,47.5459C939.9272,199.1396,939.0059,204.5581,937.9224,209.9766z"/>
				<path class="st3" d="M843.2637,221.0029c7.4507-9.1572,13.6001-18.3681,18.6391-27.417
					c21.5113,8.7237,52.2871,29.4488,55.9717,77.1573v0.0273c-7.1792,15.1714-15.9028,29.7197-26.1703,43.3735
					C892.354,261.8032,864.5308,234.332,843.2637,221.0029z"/>
				<path class="st2" d="M791.0854,232.2729c9.5362-6.4746,19.2891-13.8979,28.5274-22.2963c0,0,10.5928,2.8447,23.6509,11.0263
					c-8.94,11.0806-19.7495,22.107-32.8076,32.8081C799.8086,240.1836,791.0854,232.2729,791.0854,232.2729z"/>
			</g>
		</g>
	</g>
	<g>
		<g id="XMLID_235_">
			<g>
				<path class="st0" d="M117.0161,133.0454c-4.2803-29.0967,0.3252-49.0903,0.3252-49.0903
					c-18.8017-17.6636-49.7944,12.4892-57.6782,62.9614C80.2529,133.1265,102.4678,131.8535,117.0161,133.0454z"/>
				<path class="st3" d="M125.0356,165.6367c-4.0639-11.6494-6.5566-22.6484-8.0195-32.5913
					c-14.5483-1.1919-36.7632,0.0811-57.353,13.8711c-2.2485,14.4126-2.6279,30.478-0.2979,47.5728
					c0.7315,5.4184,1.6255,10.8369,2.709,16.228C69.6602,178.4238,103.4702,168.5898,125.0356,165.6367z"/>
				<path class="st3" d="M152.1001,359.7217c31.2637,24.5722,70.2759,42.6699,117.1177,50.77l17.1758-101.8647
					c-41.3418-15.6861-72.8765-34.2984-96.8526-53.9937C171.9312,277.2275,149.1201,315.5083,152.1001,359.7217z"/>
				<path class="st3" d="M156.7329,221.8252c-7.4502-9.1841-13.6001-18.3955-18.6665-27.4443
					c-21.5107,8.7236-52.2598,29.476-55.9443,77.1572v0.0273c7.1792,15.1714,15.9028,29.7466,26.1709,43.4009
					C107.6426,262.5981,135.4658,235.127,156.7329,221.8252z"/>
				<path class="st2" d="M117.3413,83.9551c0,0-4.6055,19.9936-0.3252,49.0903c9.8071,0.7857,16.147,2.7363,16.147,2.7363
					c-0.8399-3.9282-1.4629-7.9648-1.8423-12.0556C129.4243,103.2173,124.1958,90.4028,117.3413,83.9551z"/>
				<path class="st2" d="M159.1167,188.3667c-5.96-7.4771-11.2974-15.4692-15.686-24.0034c0,0-7.6939-0.2168-18.3951,1.2734
					c3.2779,9.2656,7.5044,18.9102,13.0308,28.7442C149.6074,189.6943,158.4937,188.4482,159.1167,188.3667z"/>
				<path class="st2" d="M180.3838,210.7715c0,0-10.5928,2.8447-23.6509,11.0537c8.94,11.0532,19.7495,22.1064,32.8081,32.8081
					c10.6196-13.6543,19.3706-21.5654,19.3706-21.5654C199.375,226.5933,189.6221,219.1699,180.3838,210.7715z"/>
				<path class="st0" d="M125.0356,165.6367c-21.5654,2.9531-55.3754,12.7871-62.9614,45.0806
					c4.145,20.8335,10.8369,41.3423,20.0479,60.8208c3.6845-47.6812,34.4336-68.4336,55.9443-77.1572
					C132.54,184.5469,128.3135,174.9023,125.0356,165.6367z"/>
				<path class="st1" d="M159.1167,188.3667c-0.623,0.0815-9.5093,1.3276-21.0503,6.0142
					c5.0664,9.0488,11.2163,18.2602,18.6665,27.4443c13.0581-8.209,23.6509-11.0537,23.6509-11.0537
					c-7.5586-6.8272-14.792-14.3042-21.2398-22.4048C159.144,188.3667,159.144,188.3667,159.1167,188.3667z"/>
				<path class="st1" d="M133.1631,135.7817c0,0-6.3399-1.9506-16.147-2.7363c1.4629,9.9429,3.9556,20.9419,8.0195,32.5913
					c10.7012-1.4902,18.3951-1.2734,18.3951-1.2734C138.8252,155.4233,135.2759,145.8867,133.1631,135.7817z"/>
				<path class="st0" d="M156.7329,221.8252c-21.2671,13.3018-49.0903,40.7729-48.4399,93.1411
					c12.3535,16.4448,26.956,31.562,43.8071,44.7554c-2.98-44.2134,19.8311-82.4942,37.4409-105.0884
					C176.4824,243.9316,165.6729,232.8784,156.7329,221.8252z"/>
				<path class="st1" d="M292.625,271.5654l-23.4072-6.2851c0,0-28.9073-10.8911-60.3062-32.2124c0,0-8.751,7.9111-19.3706,21.5654
					c23.9761,19.6953,55.5108,38.3076,96.8526,53.9937L292.625,271.5654z"/>
			</g>
		</g>
	</g>
	<path class="st4" d="M694.4595,910.5264c-62.4849-26.315,43.1084-122.9707,86.2202-513.0109
		c24.4184-221.0322-77.1035-283.8325-169.6763-296.7671l30.8052-58.228c1.8267-3.3813-2.1475-7.7505-10.1768-11.2417
		c-7.9902-3.5005-19.8979-5.8086-32.3549-5.334c-21.0528,0.7984-39.4814,4.3931-56.2286,9.0825
		c-16.7216,4.731-31.792,10.6128-45.8891,17.1148c-14.0938,6.4785-27.1709,13.5991-39.5884,21.1225
		c-12.375,7.5254-24.2852,15.5059-35.2988,23.9488l-1.6079,1.4751l-1.7193,1.3696c-8.0312,5.1343-15.2646,10.5747-22.2217,16.1602
		c-6.9316,5.6093-13.4897,11.3979-19.7065,17.3501c-12.4297,11.8847-23.4448,24.3877-32.8101,37.2475l-35.6543-40.7612
		c-2.6269-3.002-7.2602-3.0244-12.5688-0.4873c-5.3232,2.5473-11.2754,7.7153-16.0889,14.7871
		c-11.2334,16.5762-20.393,33.8452-26.9936,51.3247c-6.628,17.4922-10.6851,35.1484-12.1153,52.3696
		c-1.4834,17.2188-0.3701,33.9619,2.8331,49.8482c1.5957,7.9282,3.6992,15.6562,6.2304,23.1714
		c0.645,1.8925,7.1763,19.8608,7.1763,19.8608c-0.0127,1.1426,0,2.3218-0.0127,3.4785l-55.0049-1.8701
		c-8.6758-0.2979-11.7563,10.8955-6.7226,24.8267c19.8691,55.2285,40.2334,110.1235,60.6962,164.9956l-32.7539-0.7379
		c-8.6923-0.189-11.5649,10.9785-6.4091,24.8149l55.1269,146.4785c0.0557,0.5469,0.083,1.0821,0.1104,1.6313l-31.9698-0.6211
		c-8.6919-0.1665-11.5102,11.0044-6.2983,24.8398l47.8389,125.6768c0.4946,7.5141,0.8935,14.1211,1.2236,19.647
		c4.8145,82.7246-25.8794,53.4409-71.1338,76.019c-45.2534,22.5781,62.4995,24.0034,148.7041,24.0034
		c86.2178,0,25.8657-54.0459,34.4849-100.0224c8.6245-45.9639,28.0132-49.2037,135.7807-44.9165
		c107.7525,4.2968,60.3374,85.2817,47.399,120.9355c-12.9263,35.6489,124.9955,22.2095,196.1161,18.0767
		C845.3345,964.0879,756.9722,936.8662,694.4595,910.5264z"/>
	<g>
		<g id="XMLID_14_">
			<g>
				<path class="st5" d="M501.7295,561.8911c-57.6626,0-109.1401,26.4409-142.9673,67.836
					c-4.5767,5.5961-8.8364,11.4873-12.7334,17.6044l-0.0229,0.023c-36.8633-38.6309-59.5205-90.9917-59.5205-148.6318
					c0-14.9312,1.4956-29.5679,4.4184-43.5699c50.9331,48.0786,126.4727,78.5074,210.8257,78.5074
					c84.2851,0,159.8242-30.4288,210.8032-78.5074c2.9005,14.002,4.4409,28.6387,4.4409,43.5699
					c0,57.6401-22.6801,110.0009-59.5434,148.6318l-0.0225-0.023c-3.897-6.1171-8.1567-12.0083-12.7563-17.6044
					C610.8242,588.332,559.3696,561.8911,501.7295,561.8911z"/>
				<path class="st6" d="M346.0288,647.3315c3.897-6.1171,8.1567-12.0083,12.7334-17.6044
					c35.4585,38.6757,86.3696,62.9873,142.9673,62.9873c56.5752,0,107.5088-24.3116,142.9219-62.9873
					c4.5996,5.5961,8.8593,11.4873,12.7563,17.6044l0.0225,0.023c-39.1968,41.0322-94.481,66.6123-155.7007,66.6123
					c-61.2427,0-116.5039-25.5801-155.7236-66.6123L346.0288,647.3315z"/>
				<path class="st7" d="M501.7295,561.8911c57.6401,0,109.0947,26.4409,142.9219,67.836
					c-35.4131,38.6757-86.3467,62.9873-142.9219,62.9873c-56.5977,0-107.5088-24.3116-142.9673-62.9873
					C392.5894,588.332,444.0669,561.8911,501.7295,561.8911z"/>
			</g>
		</g>
	</g>
	<g>
		<g id="XMLID_15_">
			<g>
				<linearGradient id="SVGID_1_" gradientUnits="userSpaceOnUse" x1="399.915" y1="295.6237" x2="615.0474" y2="295.6237">
					<stop  offset="0" style="stop-color:#2273B7"/>
					<stop  offset="0.6" style="stop-color:#3DA4DD"/>
				</linearGradient>
				<path class="st8" d="M399.915,295.6133c0-59.4038,48.1519-107.5557,107.5557-107.5557
					c59.4243,0,107.5767,48.1519,107.5767,107.5557c0,59.3828-48.1523,107.5766-107.5767,107.5766
					C448.0669,403.1899,399.915,354.9961,399.915,295.6133z M577.0425,295.6133c0-38.3799-31.1499-69.5298-69.5718-69.5298
					c-38.4009,0-69.5093,31.1499-69.5093,69.5298s31.1084,69.5298,69.5093,69.5298
					C545.8926,365.1431,577.0425,333.9932,577.0425,295.6133z"/>
				<path class="st9" d="M344.7202,295.6133c0-89.9282,72.8428-162.792,162.7505-162.792s162.771,72.8638,162.771,162.792
					s-72.8633,162.792-162.771,162.792S344.7202,385.5415,344.7202,295.6133z M507.4707,188.0576
					c-59.4038,0-107.5557,48.1519-107.5557,107.5557c0,59.3828,48.1519,107.5766,107.5557,107.5766
					c59.4243,0,107.5767-48.1938,107.5767-107.5766C615.0474,236.2095,566.895,188.0576,507.4707,188.0576z"/>
				<path class="st9" d="M458.7769,297.6968c0-7.0215,5.6674-12.689,12.7099-12.689c7.001,0,12.689,5.6675,12.689,12.689
					c0,7.022-5.688,12.7099-12.689,12.7099C464.4443,310.4067,458.7769,304.7188,458.7769,297.6968z"/>
				<path class="st5" d="M437.9614,295.6133c0-38.3799,31.1084-69.5298,69.5093-69.5298c38.4219,0,69.5718,31.1499,69.5718,69.5298
					s-31.1499,69.5298-69.5718,69.5298C469.0698,365.1431,437.9614,333.9932,437.9614,295.6133z M471.4868,285.0078
					c-7.0425,0-12.7099,5.6675-12.7099,12.689c0,7.022,5.6674,12.7099,12.7099,12.7099c7.001,0,12.689-5.6879,12.689-12.7099
					C484.1758,290.6753,478.4878,285.0078,471.4868,285.0078z M532.8696,263.5884c0-14.023-11.3764-25.3994-25.3989-25.3994
					c-14.0019,0-25.3784,11.3764-25.3784,25.3994c0,14.0224,11.3765,25.3779,25.3784,25.3779
					C521.4932,288.9663,532.8696,277.6108,532.8696,263.5884z"/>
				<path class="st9" d="M507.4707,238.189c14.0225,0,25.3989,11.3764,25.3989,25.3994c0,14.0224-11.3764,25.3779-25.3989,25.3779
					c-14.0019,0-25.3784-11.3555-25.3784-25.3779C482.0923,249.5654,493.4688,238.189,507.4707,238.189z"/>
			</g>
		</g>
	</g>
</g>
</svg>
