<?xml version="1.0" encoding="utf-8"?>
<!-- Generator: Adobe Illustrator 22.1.0, SVG Export Plug-In . SVG Version: 6.00 Build 0)  -->
<svg version="1.1" id="monster" xmlns="http://www.w3.org/2000/svg" xmlns:xlink="http://www.w3.org/1999/xlink" x="0px" y="0px"
	 viewBox="0 0 1000 1000" style="enable-background:new 0 0 1000 1000;" xml:space="preserve">
<style type="text/css">
	.st0{fill:#C783B7;}
	.st1{fill:#125785;}
	.st2{fill:#8E4C87;}
	.st3{fill:#1B70B6;}
	.st4{fill:#66A0D7;}
	.st5{fill:#1E1F1D;}
	.st6{fill:#A3201B;}
	.st7{fill:#E32D28;}
	.st8{fill:url(#SVGID_1_);}
	.st9{fill:#FFFFFF;}
	.st10{fill:#D5418F;}
	.st11{fill:#E3C724;}
	.st12{fill:#A7C833;}
	.st13{fill:#E6362C;}
	.st14{fill:#C72C28;}
	.st15{fill:#E3AB28;}
	.st16{fill:#9DC42B;}
	.st17{fill:#FADF21;}
	.st18{fill:#CA9220;}
	.st19{fill:#94C128;}
	.st20{fill:#74922B;}
	.st21{fill:#59AE33;}
	.st22{fill:#499834;}
	.st23{fill:#E62A46;}
	.st24{fill:#CD163B;}
	.st25{fill:#063E51;}
	.st26{fill:#B2B1B0;}
	.st27{fill:#E62A3B;}
	.st28{fill:#CA152C;}
	.st29{fill:url(#SVGID_2_);}
	.st30{fill:url(#SVGID_3_);}
	.st31{fill:#C71B1B;}
	.st32{fill:#E52523;}
	.st33{fill:url(#SVGID_4_);}
	.st34{fill:#E43333;}
	.st35{fill:#9C1C1B;}
	.st36{fill:#C8C7C7;}
	.st37{fill:#C39E05;}
	.st38{fill:#E5B90D;}
	.st39{fill:#F1C906;}
	.st40{fill:#F7B21C;}
	.st41{fill:#566EB3;}
	.st42{fill:#4081C2;}
	.st43{fill:#F2AABB;}
	.st44{fill:#EA6379;}
	.st45{fill:#C83C5A;}
	.st46{fill:#CF4162;}
	.st47{fill:#B01C1C;}
	.st48{fill:#E52923;}
	.st49{fill:#125B95;}
	.st50{fill:#EEEDED;}
	.st51{fill:#B1B1B0;}
	.st52{fill:#98C01E;}
	.st53{fill:url(#SVGID_5_);}
	.st54{fill:#5DC2DB;}
	.st55{fill:url(#SVGID_6_);}
	.st56{fill:url(#SVGID_7_);}
	.st57{fill:#030405;}
	.st58{fill:#8666A4;}
	.st59{fill:#AE8FC2;}
	.st60{fill:#8860A3;}
	.st61{fill:#704693;}
	.st62{fill:#C8C6C7;}
	.st63{fill:#A7C835;}
	.st64{fill:#64B335;}
	.st65{fill:#174865;}
	.st66{fill:#5895C5;}
	.st67{fill:#4F2672;}
	.st68{fill:url(#SVGID_8_);}
	.st69{fill:url(#SVGID_9_);}
	.st70{fill:url(#SVGID_10_);}
	.st71{fill:url(#SVGID_11_);}
	.st72{fill:#FAB21E;}
	.st73{fill:#FBD704;}
	.st74{fill:#FAC00F;}
</style>
<g>
	<linearGradient id="SVGID_1_" gradientUnits="userSpaceOnUse" x1="295.4054" y1="892.5036" x2="710.792" y2="299.2701">
		<stop  offset="0" style="stop-color:#F8B133"/>
		<stop  offset="0.2362" style="stop-color:#F9B531"/>
		<stop  offset="0.5303" style="stop-color:#FBC02B"/>
		<stop  offset="0.8538" style="stop-color:#FED11A"/>
		<stop  offset="1" style="stop-color:#FFD907"/>
	</linearGradient>
	<path class="st8" d="M875.3213,555.9092c-23.624-59.1807-60.2813-108.1279-102.626-141.6182l31.3848-15.1201
		c8.3847-3.8857,5.8047-15.7236-6.3047-24.8926c-42.8789-32.4375-90.7637-51.4365-134.9961-55.6758l19.3828-28.6015
		c2.5869-3.8262,2.125-7.8018-0.8769-11.0283c-2.9893-3.2071-8.4805-5.6377-15.5049-6.169
		c-23.0625-1.7627-45.2686-0.1953-65.6739,4.2305c-15.8496,3.4248-30.5683,8.5888-44.0263,15.082
		c-18.1797-3.5117-36.9531-5.3799-56.167-5.3799c-19.1553,0-37.8897,1.8477-56.042,5.3604
		c-13.4287-6.4815-28.1377-11.6377-43.9785-15.0625c-20.4024-4.4258-42.6094-5.9932-65.6602-4.2305
		c-7.0273,0.5313-12.5244,2.9619-15.498,6.169c-3.0176,3.2265-3.4824,7.2021-0.8828,11.0283l19.3691,28.6015
		c-44.2324,4.2393-92.1172,23.2383-134.9941,55.6758c-12.0899,9.169-14.6875,21.0069-6.3057,24.8926l31.3838,15.1201
		c-42.3418,33.4903-78.9815,82.4375-102.626,141.6182c-5.9912,15.0224-2.3799,27.4678,6.8291,26.7589l59.7295-3.7686
		c-11.9932,30.0762-20.042,63.4502-22.7139,98.9873c-2.6884,35.5264-0.0429,73.2276,9.2676,111.4414
		c4.0235,16.4795,14.627,25.1875,21.7207,19.3311l49.0459-39.1563c9.8096,39.4023,28.4922,79.5625,57.792,115.8867
		c29.1611,36.2471,69.3789,68.4981,118.457,90.4161c8.5889,3.8476,16.7823,5.1172,22.7266,4.2334
		c5.9512-0.876,9.6201-3.8575,9.6514-8.4834l0.9619-100.4903c13.6484,1.959,27.5898,2.9717,41.7666,2.9717
		c14.2353,0,28.2471-1.0332,41.9443-2.9814l0.9619,100.5c0.0401,4.6259,3.6983,7.6074,9.6495,8.4834
		c5.9433,0.8838,14.1386-0.3858,22.7265-4.2334c49.0781-21.918,89.3076-54.169,118.4668-90.4161
		c29.3096-36.3242,47.9736-76.4843,57.793-115.8867l49.0351,39.1563c7.0928,5.8564,17.6993-2.8516,21.7227-19.3311
		c9.3076-38.2138,11.9541-75.915,9.2598-111.4414c-2.668-35.5371-10.7149-68.9111-22.7178-98.9873l59.7373,3.7686
		C877.7012,583.377,881.3125,570.9316,875.3213,555.9092z"/>
	<g>
		<g id="XMLID_258_">
			<g>
				<path class="st34" d="M500,714.4424c51.8066,0,83.084,23.1943,97.3643,37.3535l-0.0342,0.0347
					c-20.2178,27.2099-50.9766,48.0849-97.7627,48.0849c-46.5098,0-77.1992-20.6328-97.4336-47.6006l-0.0176-0.017
					C416.1543,738.1909,447.5703,714.4424,500,714.4424z"/>
				<path class="st35" d="M393.3408,762.5449c0,0,2.8389-4.2583,8.7754-10.247l0.0176,0.017
					c20.2344,26.9678,50.9238,47.6006,97.4336,47.6006c46.7861,0,77.5449-20.875,97.7627-48.0849l0.0342-0.0347
					c6.2832,6.2661,9.2773,10.749,9.2773,10.749C585.0918,793.0264,551.6855,816.8438,500,816.8438
					C448.2969,816.8438,414.9082,793.0264,393.3408,762.5449z"/>
				<path class="st5" d="M646.0381,632.7778c0,0-0.9522,75.4854-39.3965,129.7672c0,0-2.9941-4.4829-9.2773-10.749
					C583.084,737.6367,551.8066,714.4424,500,714.4424c-52.4297,0-83.8457,23.7485-97.8838,37.8555
					c-5.9365,5.9887-8.7754,10.247-8.7754,10.247c-38.4267-54.2817-39.3613-129.7672-39.3613-129.7672v-62.8495h26.8984v10.8179
					v106.417l47.791-92.2925l21.792,31.1567l23.1944-27.6084L500,628.5195l22.7617-30.1006l23.2119,27.6084l21.8096-31.1567
					l47.7559,92.2925v-106.417v-10.8179h30.499V632.7778z"/>
				<polygon class="st36" points="380.8779,580.7461 380.8779,569.9282 500,569.9282 615.5391,569.9282 615.5391,580.7461 				"/>
				<polygon class="st9" points="380.8779,580.7461 615.5391,580.7461 615.5391,687.1631 567.7832,594.8706 545.9736,626.0273 
					522.7617,598.4189 500,628.5195 473.6553,598.4189 450.4609,626.0273 428.6689,594.8706 380.8779,687.1631 				"/>
			</g>
		</g>
	</g>
	<g>
		<g id="XMLID_2_">
			<g>
				<path class="st9" d="M427.667,466.8203c0,5.916-4.7861,10.7217-10.6826,10.7217c-5.9551,0-10.7412-4.8057-10.7412-10.7217
					c0-5.9155,4.7861-10.7402,10.7412-10.7402C422.8809,456.0801,427.667,460.9048,427.667,466.8203z"/>
				<path class="st9" d="M397.0156,427.9175c0,11.8511-9.6113,21.4619-21.4424,21.4619c-11.8515,0-21.4619-9.6108-21.4619-21.4619
					c0-11.8892,9.6104-21.4424,21.4619-21.4424C387.4043,406.4751,397.0156,416.0283,397.0156,427.9175z"/>
				<path class="st26" d="M383.2314,540.0508c56.9756,0,104.1495-42.292,111.6543-97.2002c0.1338,2.1826,0.21,4.3843,0.21,6.6055
					c0,58.0668-47.0586,105.164-105.1445,105.164c-38.9795,0-73.0196-21.1743-91.208-52.6299h0.0195
					C319.4199,525.3281,349.6123,540.0508,383.2314,540.0508z"/>
				<path class="st25" d="M397.0156,427.9175c0-11.8892-9.6113-21.4424-21.4424-21.4424c-11.8515,0-21.4619,9.5532-21.4619,21.4424
					c0,11.8511,9.6104,21.4619,21.4619,21.4619C387.4043,449.3794,397.0156,439.7686,397.0156,427.9175z M451.3682,449.4561
					c0,33.9057-27.5108,61.3984-61.417,61.3984c-33.9444,0-61.4756-27.4927-61.4756-61.3984
					c0-33.9639,27.5312-61.4751,61.4756-61.4751C423.8574,387.981,451.3682,415.4922,451.3682,449.4561z M427.667,466.8203
					c0-5.9155-4.7861-10.7402-10.6826-10.7402c-5.9551,0-10.7412,4.8247-10.7412,10.7402c0,5.916,4.7861,10.7217,10.7412,10.7217
					C422.8809,477.542,427.667,472.7363,427.667,466.8203z"/>
				<path class="st9" d="M284.6719,449.4561c0-58.1441,47.1543-105.2413,105.2793-105.2413
					c55.8652,0,101.5459,43.5748,104.9345,98.6358c-7.5048,54.9082-54.6787,97.2002-111.6543,97.2002
					c-33.6191,0-63.8115-14.7227-84.4687-38.0606h-0.0195C289.7832,486.54,284.6719,468.582,284.6719,449.4561z M389.9512,510.8545
					c33.9062,0,61.417-27.4927,61.417-61.3984c0-33.9639-27.5108-61.4751-61.417-61.4751
					c-33.9444,0-61.4756,27.5112-61.4756,61.4751C328.4756,483.3618,356.0068,510.8545,389.9512,510.8545z"/>
			</g>
		</g>
	</g>
	<g>
		<g id="XMLID_1_">
			<g>
				<path class="st9" d="M606.4951,345.4126c55.961,0,101.6797,43.6514,105.0108,98.7319
					c-7.6192,54.8697-54.7168,97.104-111.6729,97.104c-33.6191,0-63.8301-14.7226-84.4492-38.0415l-0.0391,0.0191
					c-8.9404-15.4693-14.0713-33.4273-14.0713-52.6109C501.2734,392.5288,548.3896,345.4126,606.4951,345.4126z M667.9512,450.6152
					c0-33.9057-27.5117-61.3984-61.4561-61.3984c-33.9443,0-61.418,27.4927-61.418,61.3984
					c0,33.9253,27.4737,61.4561,61.418,61.4561C640.4395,512.0713,667.9512,484.5405,667.9512,450.6152z"/>
				<path class="st25" d="M613.5977,429.1538c0-11.8701-9.6104-21.5-21.461-21.5c-11.8135,0-21.4433,9.6299-21.4433,21.5
					c0,11.8316,9.6298,21.4233,21.4433,21.4233C603.9873,450.5771,613.5977,440.9854,613.5977,429.1538z M644.2686,468.0186
					c0-5.9541-4.8243-10.7408-10.7022-10.7408c-5.9736,0-10.7598,4.7867-10.7598,10.7408c0,5.9155,4.7862,10.7211,10.7598,10.7211
					C639.4443,478.7397,644.2686,473.9341,644.2686,468.0186z M667.9512,450.6152c0,33.9253-27.5117,61.4561-61.4561,61.4561
					c-33.9443,0-61.418-27.5308-61.418-61.4561c0-33.9057,27.4737-61.3984,61.418-61.3984
					C640.4395,389.2168,667.9512,416.7095,667.9512,450.6152z"/>
				<path class="st9" d="M613.5977,429.1538c0,11.8316-9.6104,21.4233-21.461,21.4233c-11.8135,0-21.4433-9.5917-21.4433-21.4233
					c0-11.8701,9.6298-21.5,21.4433-21.5C603.9873,407.6538,613.5977,417.2837,613.5977,429.1538z"/>
				<path class="st26" d="M599.833,541.2485c56.9561,0,104.0537-42.2343,111.6729-97.104c0.1533,2.1441,0.2109,4.3076,0.2109,6.4707
					c0,58.1441-47.0781,105.2027-105.2217,105.2027c-38.9414,0-72.9433-21.1363-91.1504-52.5918l0.0391-0.0191
					C536.0029,526.5259,566.2139,541.2485,599.833,541.2485z"/>
				<path class="st9" d="M644.2686,468.0186c0,5.9155-4.8243,10.7211-10.7022,10.7211c-5.9736,0-10.7598-4.8056-10.7598-10.7211
					c0-5.9541,4.7862-10.7408,10.7598-10.7408C639.4443,457.2778,644.2686,462.0645,644.2686,468.0186z"/>
			</g>
		</g>
	</g>
	<g>
		<g id="XMLID_191_">
			<g>
				<path class="st37" d="M497.2129,279.5244c-156.6924,0-224.7949,28.7725-224.7949,28.7725
					c-0.9434-4.7373-1.7305-9.544-2.3594-14.3687h0.0176c0,0,67.3154-34.5405,227.1367-34.5405
					c157.7051,0,225.3535,33.6143,227.1533,34.5229c-0.6289,4.8423-1.415,9.6319-2.3594,14.3863
					C722.0068,308.2969,653.9043,279.5244,497.2129,279.5244z"/>
				<path class="st38" d="M272.418,308.2969c0,0,68.1025-28.7725,224.7949-28.7725c156.6914,0,224.7939,28.7725,224.7939,28.7725
					c-1.5732,8.0757-3.5829,15.9941-6.0127,23.7553c-55.6045-11.7812-133.076-19.1054-218.7812-19.1054
					s-163.1602,7.3242-218.7813,19.1054C276.002,324.291,273.9912,316.3726,272.418,308.2969z"/>
				<path class="st39" d="M270.0762,293.9282h-0.0176c-1.3115-9.8764-1.9756-19.9448-1.9756-30.1709
					c0-126.5556,102.5733-229.1294,229.1299-229.1294c126.5732,0,229.1289,102.5738,229.1289,229.1294
					c0,10.2261-0.6641,20.2774-1.9756,30.1533c-1.7998-0.9086-69.4482-34.5229-227.1533-34.5229
					C337.3916,259.3877,270.0762,293.9282,270.0762,293.9282z"/>
			</g>
		</g>
		<g>
			<g id="XMLID_190_">
				<g>
					<path class="st40" d="M314.0244,148.0063c0,0,2.8496,29.4712-37.3545,33.6314
						C221.3281,107.0503,225.873,19.6846,225.873,19.6846s22.3741,77.9087,88.169,128.3042L314.0244,148.0063z"/>
					<path class="st37" d="M276.6699,181.6377c40.2041-4.1602,37.3545-33.6314,37.3545-33.6314l0.0176-0.0175
						c14.1768,10.8901,30.3809,20.4863,48.8223,27.7407c0,0,0,14.8408-14.1592,32.6352
						c-14.1934,17.7774-36.2363,11.4849-36.2363,11.4849C298.3799,207.9106,286.5635,194.9751,276.6699,181.6377z"/>
				</g>
			</g>
		</g>
		<g>
			<g id="XMLID_189_">
				<g>
					<path class="st37" d="M631.5635,175.7295c0,0,0,14.8408,14.1758,32.6352c14.1943,17.7774,36.2539,11.4849,36.2539,11.4849
						c14.0887-11.939,25.9052-24.8745,35.7822-38.2119c-40.1865-4.1602-37.3555-33.6314-37.3555-33.6314l-0.0176-0.0175
						C666.209,158.8789,650.0049,168.4751,631.5635,175.7295z"/>
					<path class="st40" d="M717.7754,181.6377c55.3418-74.5874,50.7969-161.9531,50.7969-161.9531s-22.3741,77.9087-88.17,128.3042
						l0.0176,0.0175C680.4199,148.0063,677.5889,177.4775,717.7754,181.6377z"/>
				</g>
			</g>
		</g>
	</g>
</g>
</svg>
