<?xml version="1.0" encoding="utf-8"?>
<!-- Generator: Adobe Illustrator 22.1.0, SVG Export Plug-In . SVG Version: 6.00 Build 0)  -->
<svg version="1.1" id="monster" xmlns="http://www.w3.org/2000/svg" xmlns:xlink="http://www.w3.org/1999/xlink" x="0px" y="0px"
	 viewBox="0 0 1000 1000" style="enable-background:new 0 0 1000 1000;" xml:space="preserve">
<style type="text/css">
	.st0{fill:#C783B7;}
	.st1{fill:#125785;}
	.st2{fill:#8E4C87;}
	.st3{fill:#1B70B6;}
	.st4{fill:#66A0D7;}
	.st5{fill:#1E1F1D;}
	.st6{fill:#A3201B;}
	.st7{fill:#E32D28;}
	.st8{fill:url(#SVGID_1_);}
	.st9{fill:#FFFFFF;}
	.st10{fill:#D5418F;}
	.st11{fill:#E3C724;}
	.st12{fill:#A7C833;}
	.st13{fill:#E6362C;}
	.st14{fill:#C72C28;}
	.st15{fill:#E3AB28;}
	.st16{fill:#9DC42B;}
	.st17{fill:#FADF21;}
	.st18{fill:#CA9220;}
	.st19{fill:#94C128;}
	.st20{fill:#74922B;}
	.st21{fill:#59AE33;}
	.st22{fill:#499834;}
	.st23{fill:#E62A46;}
	.st24{fill:#CD163B;}
	.st25{fill:#063E51;}
	.st26{fill:#B2B1B0;}
	.st27{fill:#E62A3B;}
	.st28{fill:#CA152C;}
	.st29{fill:url(#SVGID_2_);}
	.st30{fill:url(#SVGID_3_);}
	.st31{fill:#C71B1B;}
	.st32{fill:#E52523;}
	.st33{fill:url(#SVGID_4_);}
	.st34{fill:#E43333;}
	.st35{fill:#9C1C1B;}
	.st36{fill:#C8C7C7;}
	.st37{fill:#C39E05;}
	.st38{fill:#E5B90D;}
	.st39{fill:#F1C906;}
	.st40{fill:#F7B21C;}
	.st41{fill:#566EB3;}
	.st42{fill:#4081C2;}
	.st43{fill:#F2AABB;}
	.st44{fill:#EA6379;}
	.st45{fill:#C83C5A;}
	.st46{fill:#CF4162;}
	.st47{fill:#B01C1C;}
	.st48{fill:#E52923;}
	.st49{fill:#125B95;}
	.st50{fill:#EEEDED;}
	.st51{fill:#B1B1B0;}
	.st52{fill:#98C01E;}
	.st53{fill:url(#SVGID_5_);}
	.st54{fill:#5DC2DB;}
	.st55{fill:url(#SVGID_6_);}
	.st56{fill:url(#SVGID_7_);}
	.st57{fill:#030405;}
	.st58{fill:#8666A4;}
	.st59{fill:#AE8FC2;}
	.st60{fill:#8860A3;}
	.st61{fill:#704693;}
	.st62{fill:#C8C6C7;}
	.st63{fill:#A7C835;}
	.st64{fill:#64B335;}
	.st65{fill:#174865;}
	.st66{fill:#5895C5;}
	.st67{fill:#4F2672;}
	.st68{fill:url(#SVGID_8_);}
	.st69{fill:url(#SVGID_9_);}
	.st70{fill:url(#SVGID_10_);}
	.st71{fill:url(#SVGID_11_);}
	.st72{fill:#FAB21E;}
	.st73{fill:#FBD704;}
	.st74{fill:#FAC00F;}
</style>
<g>
	<g id="XMLID_302_">
		<g>
			<path class="st42" d="M692.7197,61.1704l-67.5468,41.5894l26.9951,63.3169h0.0195c-0.2881,3.9223-1.4609,6.6142-3.5381,7.4604
				c-5.7295,2.3267-16.1514-9.8833-23.3037-27.2842l-4.4033-9.6714l-2.2881-5.0376l-2.9414-6.6337l-12.1143-27.2266l26.3233-17.9585
				l6.2109-4.2686l4.71-3.2685l9.3642-6.5567l19.5547-13.6132l28.6494-19.4585l16.5938,14.1899l8.4599,7.1528l3.9795,3.4034
				l2.8272,2.3266l22.4189,18.6123L775.168,96.876l5.5956,4.6343l2.8839,2.3842l4.5185,3.8838l18.4004,15.728l-3.4609,20.4585
				l-1.6729,10.0562l-0.9414,6.2104l-3.7685,24.8809l-3.75,24.8804l-1.8653,12.4404l-3.5761,20.939l-11.6329,10.7675l-2.9033,2.6919
				l-1.6338,1.5381l-3.2304,3.0957l-12.9024,12.3252l-25.8222,24.688l-51.6456,49.3384
				c-5.3457,5.5566-11.1523,11.1328-17.3437,16.6128c-27.8994,24.5537-56.6445,9.5371-58.8369-13.8823l145.3613-120.5
				l33.8027-91.7163L692.7197,61.1704z"/>
			<path class="st49" d="M652.168,166.0767l-26.9951-63.3169l67.5468-41.5894l88.0244,77.1607l-33.8027,91.7163l-145.3613,120.5
				c-1-10.71,3.5576-23.1695,16.3056-34.4175c6.21-5.4414,12.459-10.4986,18.6309-15.0938l55.4727-44.9931l27.7451-22.5347
				l13.8633-11.2676l3.4609-2.8261l1.75-1.3848c0.1924-0.1152,0.2685-0.1729,0.4228-0.2691l1.7305-1.038l0.5-1.2886l0.2695-0.6343
				l0.1338-0.3462l0.3467-1.4614l2.8643-12.2095l5.7686-24.5151l5.7686-24.4961l1.4609-6.1148
				c0.1348-0.6538,0.1348-0.5766,0.1924-0.8076l0.1729-0.4804l0.3076-1l1.3467-4.2491l-3.2881-3.7495l-0.8848-1l-2.5186-2.4609
				l-5.1914-5.0957l-20.9004-20.3618l-20.8427-20.3623l-2.6153-2.5767l-0.5576-0.5576l-0.2695-0.3076l-0.5957-0.5957l-2.3848-2.5381
				l-5.0176-5.3452l-9.9218,5.2294c-0.5197,0.2886-2.5762,1.5-4.1534,2.4039l-4.9218,2.9033l-9.9023,5.768l-9.9023,5.7876
				l-4.9229,2.8843l-1.249,0.75l-0.7314,0.3843l-1.461,0.7886l-12.248,6.7104l4.0185,12.0557l1.0772,3.1728l1.7109,4.7681
				l3.6338,9.9795c4.5186,11.0366,6.6338,21.5352,6.1338,28.3223H652.168z"/>
		</g>
	</g>
	<g id="XMLID_301_">
		<g>
			<path class="st42" d="M158.7422,107.7783l-18.3814,15.728l3.4414,20.4585l1.6729,10.0562l0.9614,6.2104l3.7495,24.8809
				l3.7495,24.8804l1.8843,12.4404l3.5186,20.939l11.6714,10.7675l2.9223,2.6919l1.6343,1.5381l3.2114,3.0957l12.9014,12.3252
				l25.8232,24.688l51.6646,49.3384c5.3262,5.5566,11.1328,11.1328,17.3628,16.6128c27.8994,24.5537,56.664,9.5371,58.8174-13.8823
				h-0.0191l-145.3423-120.5l-33.8022-91.7163l88.0244-77.1607l67.5278,41.5894l-26.9765,63.3169h-0.0386
				c0.2886,3.9419,1.4614,6.6142,3.5571,7.4604c5.7491,2.3267,16.1319-9.8833,23.3037-27.2842l4.3843-9.6714l2.3071-5.0376
				l2.961-6.6337l12.1138-27.2266l-26.3614-17.9585l-6.1914-4.2686l-4.7104-3.2685l-9.3833-6.5567l-19.5547-13.6132
				l-28.6494-19.4585l-16.5742,14.1899l-8.4795,7.1528l-3.98,3.4034l-2.8071,2.3266l-22.439,18.6123L171.7979,96.876l-5.6338,4.6343
				l-2.9034,2.3842L158.7422,107.7783z"/>
			<path class="st49" d="M300.8735,137.7544c-4.5376,11.0366-6.6528,21.5352-6.1528,28.3223h0.0386l26.9765-63.3169L254.208,61.1704
				l-88.0244,77.1607l33.8022,91.7163l145.3423,120.5h0.0191c1-10.71-3.5762-23.1695-16.3052-34.4175
				c-6.2295-5.4414-12.4785-10.4986-18.6509-15.0938l-55.4717-44.9931l-27.7265-22.5347l-13.8824-11.2676l-3.4609-2.8261
				l-1.75-1.3848c-0.1728-0.1152-0.269-0.1729-0.4033-0.2691l-1.7114-1.038l-0.5386-1.2886l-0.2691-0.6343l-0.1152-0.3462
				l-0.3271-1.4614l-2.9034-12.2095l-5.768-24.5151l-5.7686-24.4961l-1.4419-6.1148c-0.1347-0.6538-0.1347-0.5766-0.2114-0.8076
				l-0.1538-0.4804l-0.3272-1l-1.3266-4.2491l3.2685-3.7495l0.8848-1l2.5186-2.4609l5.2109-5.0957l20.8813-20.3618L240.46,86.0894
				l2.5957-2.5767l0.5771-0.5576l0.2691-0.3076l0.5766-0.5957l2.4038-2.5381l5.0181-5.3452l9.9023,5.2294
				c0.5191,0.2886,2.5957,1.5,4.1534,2.4039l4.9609,2.9033l9.8828,5.768l9.9023,5.7876l4.9224,2.8843l1.231,0.75l0.7299,0.3843
				l1.4615,0.7886l12.229,6.7104l-3.9995,12.0557l-1.0576,3.1728l-1.711,4.7681L300.8735,137.7544z"/>
		</g>
	</g>
	<g id="XMLID_259_">
		<g>
			<path class="st4" d="M499.5195,967.439c-108.3584,0-95.2466-110.1397-95.2466-110.1397s-52.3237,101.4063-199.9189,109.521
				c-147.5952,8.1143-246.602-64.8916-123.2764-77.063c123.2764-12.1474,63.5059-247.394,50.419-446.1499
				c0,0-6.5557-64.9653,38.3213-117.8828c0.0991-0.1484,58.3354-97.5229,267.5561-108.3833v0.0244
				c0,0,328.6621-17.2431,312.4336,295.042c-13.6562,263.1524-30.3056,308.2774,20.6817,331.3838c0.0253,0.0244,0.0253,0,0.0253,0
				c9.5,7.0752,21.9688,10.6377,36.0206,11.9243h0.0244c55.1934,5.1211,134.7061-24.665,154.4229-14.5962
				c31.7656,16.1797,18.6786,126.3194-151.3301,126.3194s-177.4804-98.6364-177.4804-98.6364S607.8779,967.439,499.5195,967.439z"/>
			<path class="st42" d="M751.7373,790.3789c-2.0537,26.8921,5.4678,43.5664,18.752,53.4126
				c-50.9873-23.1064-34.3379-68.2314-20.6817-331.3838c16.2285-312.2851-312.4336-295.042-312.4336-295.042v-0.0244
				c12.3697-0.6435,25.2588-0.9897,38.6924-0.9897c240.9121,0,324.7285,91.4121,308.4014,273.5678
				C784.1709,604.5122,756.3145,730.8066,751.7373,790.3789z"/>
		</g>
	</g>
	<g>
		<g id="XMLID_179_">
			<g>
				<path class="st9" d="M230.4888,673.5308c0,0-10.0723-6.3204,12.5962-22.669c22.6689-16.3706,54.1372-35.2651,54.1372-35.2651
					s12.5966-8.9112,20.1455,11.2788c4.9355,13.1767,15.9238,45.4492,22.959,66.2646
					c-29.9273,8.3081-80.1788,47.3698-80.1788,47.3698h-0.0219L230.4888,673.5308z"/>
				<path class="st36" d="M340.3267,693.1401c3.7519,11.0552,6.3652,18.8721,6.3652,18.8721l0.0225,0.022
					c-35.5332,17.2417-61.7979,33.7021-78.9727,45.6728l-7.6157-17.1971h0.0219
					C260.1479,740.5098,310.3994,701.4482,340.3267,693.1401z"/>
				<path class="st5" d="M452.3311,670.27c66.331-20.9936,148.788-38.1909,247.8603-43.3945c0,0-245.5601,20.5469-442.0088,179.6758
					l-15.0976-29.9496c0,0,8.1518-7.3926,24.6567-18.8947c17.1748-11.9706,43.4395-28.4311,78.9727-45.6728
					c10.2065-4.958,21.1723-9.9829,32.9199-14.9634C401.2534,687.8691,425.4634,678.7568,452.3311,670.27z"/>
				<path class="st36" d="M379.6343,697.0708l-6.3198-19.1177c0,0,42.4335-25.8853,73.8349-29.0117
					c2.9483,12.105,5.1817,21.3286,5.1817,21.3286C425.4634,678.7568,401.2534,687.8691,379.6343,697.0708z"/>
				<path class="st9" d="M447.1494,648.9414c-31.4014,3.1265-73.8349,29.0117-73.8349,29.0117l-16.9073-51.0776
					c0,0-8.2412-16.3037,11.6133-23.875c19.8774-7.5488,45.0474-16.3706,45.0474-16.3706s16.3706-5.0249,20.1675,7.5488
					C435.5806,601.9956,442.3252,629.2876,447.1494,648.9414z"/>
			</g>
		</g>
	</g>
	<g>
		<g id="XMLID_233_">
			<g>
				<path class="st50" d="M275.5962,419.0532c0-95.268,77.2851-172.5537,172.6006-172.5537c0.0473,0,0.0473,0,0.0942,0
					l-0.0942,10.8462c-77.7075,0-140.7661,63.0117-140.7661,140.7197c0,46.3428,22.4438,87.521,57.0483,113.1577l-49.3481,17.7955
					C290.4336,499.2031,275.5962,460.8418,275.5962,419.0532z"/>
				<path class="st9" d="M448.1968,300.3081c41.4131,0,75.0317,33.6187,75.0317,75.0786c0,41.46-33.6186,75.0786-75.0317,75.0786
					c-41.5069,0-75.0781-33.6186-75.0781-75.0786C373.1187,333.9268,406.6899,300.3081,448.1968,300.3081z M448.1968,332.6123
					c-18.4995,0-33.3833,14.978-33.3833,33.3838c0,18.4526,14.8838,33.3838,33.3833,33.3838
					c18.3589,0,33.3369-14.9312,33.3369-33.3838C481.5337,347.5903,466.5557,332.6123,448.1968,332.6123z"/>
				<path class="st51" d="M531.7744,511.2231l49.3008,17.7955c-3.2871,3.9907-6.7617,7.7939-10.377,11.4565v0.0469
					c-17.4668-6.2447-38.2666-11.5977-62.8701-14.9781C516.3262,521.5527,524.3086,516.7637,531.7744,511.2231z"/>
				<path class="st5" d="M523.2285,375.3867c0-41.4599-33.6186-75.0786-75.0317-75.0786c-41.5069,0-75.0781,33.6187-75.0781,75.0786
					c0,41.46,33.5712,75.0786,75.0781,75.0786C489.6099,450.4653,523.2285,416.8467,523.2285,375.3867z M388.4722,525.5439
					c-8.4986-3.9443-16.5274-8.7802-23.9932-14.3208c-34.6045-25.6367-57.0483-66.8149-57.0483-113.1577
					c0-77.708,63.0586-140.7197,140.7661-140.7197c77.6606,0,140.6255,63.0117,140.6255,140.7197
					c0,46.3428-22.4434,87.521-57.0479,113.1577c-7.4658,5.5406-15.4482,10.3296-23.9463,14.3208
					c-17.7959-2.4418-37.6098-3.8505-59.6313-3.8505C426.1758,521.6934,406.3145,523.1021,388.4722,525.5439z"/>
				<path class="st51" d="M325.6016,540.522c-3.6621-3.6626-7.1368-7.5127-10.4707-11.5034l49.3481-17.7955
					c7.4658,5.5406,15.4946,10.3765,23.9932,14.3208C363.8687,528.9243,343.0684,534.2773,325.6016,540.522z"/>
				<path class="st5" d="M507.8281,525.5439c24.6035,3.3804,45.4033,8.7334,62.8701,14.9781
					c57.2832,20.5186,78.6006,50.8974,80.8536,54.372c-3.4747-4.0849-44.3702-47.7519-203.355-47.7519
					c-159.0781,0-199.9741,43.667-203.4961,47.7519c2.2539-3.4746,23.5708-33.8535,80.9009-54.372
					c17.4668-6.2447,38.2671-11.5977,62.8706-14.9781c17.8423-2.4418,37.7036-3.8505,59.7246-3.8505
					C470.2183,521.6934,490.0322,523.1021,507.8281,525.5439z"/>
				<path class="st50" d="M448.291,246.4995c95.1748,0.0474,172.4131,77.3325,172.4131,172.5537
					c0,41.7886-14.8848,80.1026-39.6289,109.9654l-49.3008-17.7955c34.6045-25.6367,57.0479-66.8149,57.0479-113.1577
					c0-77.708-62.9649-140.7197-140.6255-140.7197L448.291,246.4995z"/>
				<path class="st5" d="M414.8135,365.9961c0-18.4058,14.8838-33.3838,33.3833-33.3838c18.3589,0,33.3369,14.978,33.3369,33.3838
					c0,18.4526-14.978,33.3838-33.3369,33.3838C429.6973,399.3799,414.8135,384.4487,414.8135,365.9961z"/>
			</g>
		</g>
	</g>
</g>
</svg>
