<?xml version="1.0" encoding="utf-8"?>
<!-- Generator: Adobe Illustrator 22.1.0, SVG Export Plug-In . SVG Version: 6.00 Build 0)  -->
<svg version="1.1" id="monster" xmlns="http://www.w3.org/2000/svg" xmlns:xlink="http://www.w3.org/1999/xlink" x="0px" y="0px"
	 viewBox="0 0 1000 1000" style="enable-background:new 0 0 1000 1000;" xml:space="preserve">
<style type="text/css">
	.st0{fill:#C783B7;}
	.st1{fill:#125785;}
	.st2{fill:#8E4C87;}
	.st3{fill:#1B70B6;}
	.st4{fill:#66A0D7;}
	.st5{fill:#1E1F1D;}
	.st6{fill:#A3201B;}
	.st7{fill:#E32D28;}
	.st8{fill:url(#SVGID_1_);}
	.st9{fill:#FFFFFF;}
	.st10{fill:#D5418F;}
	.st11{fill:#E3C724;}
	.st12{fill:#A7C833;}
	.st13{fill:#E6362C;}
	.st14{fill:#C72C28;}
	.st15{fill:#E3AB28;}
	.st16{fill:#9DC42B;}
	.st17{fill:#FADF21;}
	.st18{fill:#CA9220;}
	.st19{fill:#94C128;}
	.st20{fill:#74922B;}
	.st21{fill:#59AE33;}
	.st22{fill:#499834;}
	.st23{fill:#E62A46;}
	.st24{fill:#CD163B;}
	.st25{fill:#063E51;}
	.st26{fill:#B2B1B0;}
	.st27{fill:#E62A3B;}
	.st28{fill:#CA152C;}
	.st29{fill:url(#SVGID_2_);}
	.st30{fill:url(#SVGID_3_);}
	.st31{fill:#C71B1B;}
	.st32{fill:#E52523;}
	.st33{fill:url(#SVGID_4_);}
	.st34{fill:#E43333;}
	.st35{fill:#9C1C1B;}
	.st36{fill:#C8C7C7;}
	.st37{fill:#C39E05;}
	.st38{fill:#E5B90D;}
	.st39{fill:#F1C906;}
	.st40{fill:#F7B21C;}
	.st41{fill:#566EB3;}
	.st42{fill:#4081C2;}
	.st43{fill:#F2AABB;}
	.st44{fill:#EA6379;}
	.st45{fill:#C83C5A;}
	.st46{fill:#CF4162;}
	.st47{fill:#B01C1C;}
	.st48{fill:#E52923;}
	.st49{fill:#125B95;}
	.st50{fill:#EEEDED;}
	.st51{fill:#B1B1B0;}
	.st52{fill:#98C01E;}
	.st53{fill:url(#SVGID_5_);}
	.st54{fill:#5DC2DB;}
	.st55{fill:url(#SVGID_6_);}
	.st56{fill:url(#SVGID_7_);}
	.st57{fill:#030405;}
	.st58{fill:#8666A4;}
	.st59{fill:#AE8FC2;}
	.st60{fill:#8860A3;}
	.st61{fill:#704693;}
	.st62{fill:#C8C6C7;}
	.st63{fill:#A7C835;}
	.st64{fill:#64B335;}
	.st65{fill:#174865;}
	.st66{fill:#5895C5;}
	.st67{fill:#4F2672;}
	.st68{fill:url(#SVGID_8_);}
	.st69{fill:url(#SVGID_9_);}
	.st70{fill:url(#SVGID_10_);}
	.st71{fill:url(#SVGID_11_);}
	.st72{fill:#FAB21E;}
	.st73{fill:#FBD704;}
	.st74{fill:#FAC00F;}
</style>
<g>
	<g id="XMLID_50_">
		<g>
			<path class="st9" d="M345.1328,96.793c0,10.0908-8.2265,18.3178-18.3183,18.3178c-10.1309,0-18.3584-8.227-18.3584-18.3178
				c0-10.1319,8.2275-18.3589,18.3584-18.3589C336.9063,78.4341,345.1328,86.6611,345.1328,96.793z"/>
			<path class="st52" d="M420.6748,375.6157c8.834-88.9555-7.376-155.3789-17.4678-186.2197
				c-17.0205,14.7519-39.1884,23.708-63.4238,23.708c-53.5352,0-97.0615-43.5254-97.0615-97.061
				c0-53.4951,43.5263-97.0205,97.0615-97.0205c53.4951,0,97.0205,43.5254,97.0205,97.0205
				c0,19.1689-5.5928,37.0415-15.2373,52.1172c9.4824,24.3159,34.1631,100.3032,23.3027,209.8872L420.6748,375.6157z
				 M412.4883,116.043c0-40.0806-32.624-72.7046-72.7051-72.7046c-40.1211,0-72.7451,32.624-72.7451,72.7046
				c0,40.1211,32.624,72.7451,72.7451,72.7451C379.8643,188.7881,412.4883,156.1641,412.4883,116.043z"/>
			<path class="st5" d="M326.8145,78.4341c-10.1309,0-18.3584,8.227-18.3584,18.3589c0,10.0908,8.2275,18.3178,18.3584,18.3178
				c10.0918,0,18.3183-8.227,18.3183-18.3178C345.1328,86.6611,336.9063,78.4341,326.8145,78.4341z M315.9941,131.1187
				c0-4.1333-3.4043-7.5376-7.538-7.5376c-4.1338,0-7.5381,3.4043-7.5381,7.5376c0,4.1337,3.4043,7.538,7.5381,7.538
				C312.5898,138.6567,315.9941,135.2524,315.9941,131.1187z M285.2754,116.043c0-30.0303,24.4375-54.4678,54.5078-54.4678
				c30.0303,0,54.4678,24.4375,54.4678,54.4678c0,30.0708-24.4375,54.5083-54.4678,54.5083
				C309.7129,170.5513,285.2754,146.1138,285.2754,116.043z"/>
			<path class="st9" d="M339.7832,188.7881c-40.1211,0-72.7451-32.624-72.7451-72.7451c0-40.0806,32.624-72.7046,72.7451-72.7046
				c40.0811,0,72.7051,32.624,72.7051,72.7046C412.4883,156.1641,379.8643,188.7881,339.7832,188.7881z M394.251,116.043
				c0-30.0303-24.4375-54.4678-54.4678-54.4678c-30.0703,0-54.5078,24.4375-54.5078,54.4678
				c0,30.0708,24.4375,54.5083,54.5078,54.5083C369.8135,170.5513,394.251,146.1138,394.251,116.043z"/>
			<path class="st9" d="M300.918,131.1187c0-4.1333,3.4043-7.5376,7.5381-7.5376c4.1337,0,7.538,3.4043,7.538,7.5376
				c0,4.1337-3.4043,7.538-7.538,7.538C304.3223,138.6567,300.918,135.2524,300.918,131.1187z"/>
		</g>
	</g>
	<g>
		<g id="XMLID_49_">
			<g>
				<path class="st5" d="M702.7803,84.7563c0-6.6059-5.3907-12.0361-11.9961-12.0361c-6.6465,0-12.0362,5.4302-12.0362,12.0361
					c0,6.6465,5.3897,12.0367,12.0362,12.0367C697.3896,96.793,702.7803,91.4028,702.7803,84.7563z M671.1689,88.8496
					c0-2.229-1.8232-4.0933-4.0927-4.0933c-2.2696,0-4.1338,1.8643-4.1338,4.0933c0,2.2695,1.8642,4.1338,4.1338,4.1338
					C669.3457,92.9834,671.1689,91.1191,671.1689,88.8496z M651.8379,96.793c0-17.8726,14.5488-32.4214,32.3809-32.4214
					c17.872,0,32.4208,14.5488,32.4208,32.4214c0,17.8315-14.5488,32.3803-32.4208,32.3803
					C666.3867,129.1733,651.8379,114.6245,651.8379,96.793z"/>
				<path class="st52" d="M684.2188,47.3911c-27.2334,0-49.4014,22.168-49.4014,49.4019s22.168,49.4018,49.4014,49.4018
					c27.2744,0,49.4023-22.1679,49.4023-49.4018S711.4932,47.3911,684.2188,47.3911z M610.501,96.793
					c0-40.6485,33.0693-73.7178,73.7178-73.7178c40.6484,0,73.7177,33.0693,73.7177,73.7178
					c0,40.6479-33.0693,73.7177-73.7177,73.7177c-13.0499,0-25.2881-3.4448-35.9473-9.4428
					c-13.252,27.3149-42.5527,97.791-29.0576,163.8086l-23.8291,4.8632c-16.0078-78.4189,20.3846-158.8642,33.4745-184.4365
					C617.4717,132.3345,610.501,115.354,610.501,96.793z"/>
				<path class="st9" d="M684.2188,64.3716c-17.8321,0-32.3809,14.5488-32.3809,32.4214c0,17.8315,14.5488,32.3803,32.3809,32.3803
					c17.872,0,32.4208-14.5488,32.4208-32.3803C716.6396,78.9204,702.0908,64.3716,684.2188,64.3716z M684.2188,146.1948
					c-27.2334,0-49.4014-22.1679-49.4014-49.4018s22.168-49.4019,49.4014-49.4019c27.2744,0,49.4023,22.168,49.4023,49.4019
					S711.4932,146.1948,684.2188,146.1948z"/>
				<path class="st9" d="M667.0762,84.7563c2.2695,0,4.0927,1.8643,4.0927,4.0933c0,2.2695-1.8232,4.1338-4.0927,4.1338
					c-2.2696,0-4.1338-1.8643-4.1338-4.1338C662.9424,86.6206,664.8066,84.7563,667.0762,84.7563z"/>
				<path class="st9" d="M690.7842,72.7202c6.6054,0,11.9961,5.4302,11.9961,12.0361c0,6.6465-5.3907,12.0367-11.9961,12.0367
					c-6.6465,0-12.0362-5.3902-12.0362-12.0367C678.748,78.1504,684.1377,72.7202,690.7842,72.7202z"/>
			</g>
		</g>
	</g>
	<linearGradient id="SVGID_1_" gradientUnits="userSpaceOnUse" x1="362.5218" y1="1025.5759" x2="660.459" y2="207.0001">
		<stop  offset="0" style="stop-color:#97C11E"/>
		<stop  offset="0.1091" style="stop-color:#A4C622"/>
		<stop  offset="0.2742" style="stop-color:#BED019"/>
		<stop  offset="0.4481" style="stop-color:#D0D70F"/>
		<stop  offset="0.6218" style="stop-color:#DADA08"/>
		<stop  offset="0.7939" style="stop-color:#DEDC06"/>
	</linearGradient>
	<path class="st8" d="M757.7197,940.7524h-13.498V257.397c0-15.71-12.7178-28.4165-28.4072-28.4165H284.1846
		c-15.6748,0-28.3955,12.7065-28.3955,28.4165v683.3553h-13.4952c-7.2636,0-13.1435,5.8604-13.1435,13.1246v13.977
		c0,7.2412,5.8799,13.1128,13.1435,13.1128h139.0987c7.2334,0,13.1172-5.8716,13.1172-13.1128v-13.977
		c0-7.2642-5.8838-13.1246-13.1172-13.1246h-59.044V732.0029h355.3233v208.7495h-59.0655c-7.2568,0-13.123,5.8604-13.123,13.1246
		v13.977c0,7.2412,5.8662,13.1128,13.123,13.1128h139.1133c7.2393,0,13.1299-5.8716,13.1299-13.1128v-13.977
		C770.8496,946.6128,764.959,940.7524,757.7197,940.7524z"/>
	<g>
		<g id="XMLID_46_">
			<g>
				<path class="st6" d="M643.6787,484.8496c4.624,5.626,8.9063,11.5483,12.8242,17.6987
					c-39.3839,41.274-94.963,66.9908-156.5097,66.9908c-61.5694,0-117.125-25.7168-156.5313-66.9908
					c3.918-6.1504,8.2002-12.0727,12.8018-17.6987c35.6474,38.8823,86.8301,63.3233,143.7295,63.3233
					C556.8711,548.1729,608.0762,523.7319,643.6787,484.8496z"/>
				<path class="st7" d="M499.9932,416.6289c57.9482,0,109.6777,26.582,143.6855,68.2207
					c-35.6025,38.8823-86.8076,63.3233-143.6855,63.3233c-56.8994,0-108.0821-24.441-143.7295-63.3233
					C390.2715,443.2109,442.0234,416.6289,499.9932,416.6289z"/>
				<path class="st5" d="M716.3867,353.146c0,57.9478-22.7783,110.5654-59.8838,149.4023
					c-3.9179-6.1504-8.2003-12.0727-12.8242-17.6987c-34.0078-41.6387-85.7373-68.2207-143.6855-68.2207
					c-57.9698,0-109.7217,26.582-143.7295,68.2207c-4.6016,5.626-8.8838,11.5483-12.8018,17.6987
					c-37.083-38.8369-59.8613-91.4545-59.8613-149.4023c0-15.0107,1.5039-29.7026,4.4414-43.8027
					c51.206,48.313,127.1484,78.9038,211.9512,78.9038c84.7353,0,160.6777-30.5908,211.9287-78.9038
					C714.8379,323.4434,716.3867,338.1353,716.3867,353.146z"/>
			</g>
		</g>
	</g>
</g>
</svg>
