<?xml version="1.0" encoding="utf-8"?>
<!-- Generator: Adobe Illustrator 22.1.0, SVG Export Plug-In . SVG Version: 6.00 Build 0)  -->
<svg version="1.1" id="monster" xmlns="http://www.w3.org/2000/svg" xmlns:xlink="http://www.w3.org/1999/xlink" x="0px" y="0px"
	 viewBox="0 0 1000 1000" style="enable-background:new 0 0 1000 1000;" xml:space="preserve">
<style type="text/css">
	.st0{fill:#C783B7;}
	.st1{fill:#125785;}
	.st2{fill:#8E4C87;}
	.st3{fill:#1B70B6;}
	.st4{fill:#66A0D7;}
	.st5{fill:#1E1F1D;}
	.st6{fill:#A3201B;}
	.st7{fill:#E32D28;}
	.st8{fill:url(#SVGID_1_);}
	.st9{fill:#FFFFFF;}
	.st10{fill:#D5418F;}
	.st11{fill:#E3C724;}
	.st12{fill:#A7C833;}
	.st13{fill:#E6362C;}
	.st14{fill:#C72C28;}
	.st15{fill:#E3AB28;}
	.st16{fill:#9DC42B;}
	.st17{fill:#FADF21;}
	.st18{fill:#CA9220;}
	.st19{fill:#94C128;}
	.st20{fill:#74922B;}
	.st21{fill:#59AE33;}
	.st22{fill:#499834;}
	.st23{fill:#E62A46;}
	.st24{fill:#CD163B;}
	.st25{fill:#063E51;}
	.st26{fill:#B2B1B0;}
	.st27{fill:#E62A3B;}
	.st28{fill:#CA152C;}
	.st29{fill:url(#SVGID_2_);}
	.st30{fill:url(#SVGID_3_);}
	.st31{fill:#C71B1B;}
	.st32{fill:#E52523;}
	.st33{fill:url(#SVGID_4_);}
	.st34{fill:#E43333;}
	.st35{fill:#9C1C1B;}
	.st36{fill:#C8C7C7;}
	.st37{fill:#C39E05;}
	.st38{fill:#E5B90D;}
	.st39{fill:#F1C906;}
	.st40{fill:#F7B21C;}
	.st41{fill:#566EB3;}
	.st42{fill:#4081C2;}
	.st43{fill:#F2AABB;}
	.st44{fill:#EA6379;}
	.st45{fill:#C83C5A;}
	.st46{fill:#CF4162;}
	.st47{fill:#B01C1C;}
	.st48{fill:#E52923;}
	.st49{fill:#125B95;}
	.st50{fill:#EEEDED;}
	.st51{fill:#B1B1B0;}
	.st52{fill:#98C01E;}
	.st53{fill:url(#SVGID_5_);}
	.st54{fill:#5DC2DB;}
	.st55{fill:url(#SVGID_6_);}
	.st56{fill:url(#SVGID_7_);}
	.st57{fill:#030405;}
	.st58{fill:#8666A4;}
	.st59{fill:#AE8FC2;}
	.st60{fill:#8860A3;}
	.st61{fill:#704693;}
	.st62{fill:#C8C6C7;}
	.st63{fill:#A7C835;}
	.st64{fill:#64B335;}
	.st65{fill:#174865;}
	.st66{fill:#5895C5;}
	.st67{fill:#4F2672;}
	.st68{fill:url(#SVGID_8_);}
	.st69{fill:url(#SVGID_9_);}
	.st70{fill:url(#SVGID_10_);}
	.st71{fill:url(#SVGID_11_);}
	.st72{fill:#FAB21E;}
	.st73{fill:#FBD704;}
	.st74{fill:#FAC00F;}
</style>
<g>
	<g id="XMLID_313_">
		<g>
			<path class="st19" d="M685.165,90.3765l25.751,60.497h0.0186c-0.2754,3.7261-1.3946,6.2774-3.377,7.085
				c-5.4512,2.2393-15.418-9.416-22.2275-26.0454l-4.2403-9.2144l-2.1845-4.8086l-2.7891-6.351l-11.5635-25.9903l25.127-17.1245
				l5.9287-4.0752l4.5156-3.1387l8.9014-6.2402l18.6855-12.9951l27.3487-18.5933l15.8214,13.5274l8.0947,6.8647l3.7998,3.23
				l2.6973,2.2026l21.4384,17.7857l21.4024,17.7861l5.3594,4.4414l2.7529,2.2764l4.3135,3.7261l17.5468,15.0136l-3.2851,19.4932
				l-1.6153,9.5991l-0.8808,5.9473l-3.5977,23.751l-3.5977,23.7509l-1.7989,11.8384l-3.3593,20.0254l-11.1221,10.2603
				l-2.7539,2.6064l-1.5781,1.4317l-3.0656,2.9731l-12.3525,11.7656l-24.6318,23.5674l-49.3008,47.1162
				c-5.1211,5.2495-10.6641,10.6094-16.5567,15.8218c-26.6504,23.4575-54.1279,9.104-56.165-13.2886l138.7803-114.9741
				l32.249-87.5698l-84.0459-73.6392L685.165,90.3765z"/>
			<path class="st20" d="M710.916,150.8735l-25.751-60.497l64.4434-39.6646l84.0459,73.6392l-32.249,87.5698L662.625,326.895
				c-0.9541-10.2051,3.3955-22.0991,15.5469-32.8183c5.9287-5.1758,11.9306-10.0035,17.7851-14.3902l52.9532-42.9863
				l26.5234-21.4751l13.2148-10.7378l3.3037-2.6977l1.6885-1.3404c0.1475-0.0918,0.2393-0.1831,0.3858-0.2749l1.6699-0.9731
				l0.4414-1.2115l0.2744-0.642l0.1475-0.3492l0.2568-1.3579l2.7715-11.6919l5.5068-23.3842l5.5244-23.4019l1.377-5.8188
				c0.165-0.6241,0.165-0.5323,0.2197-0.7525l0.1289-0.4585l0.293-0.9731l1.2852-4.0381l-3.1202-3.5972l-0.8622-0.9365
				l-2.3681-2.3677l-5.0108-4.8457L782.665,93.9556L762.7314,74.481l-2.4775-2.4229l-0.5508-0.5322l-0.2207-0.312l-0.6054-0.5503
				l-2.2579-2.46l-4.8271-5.0659l-9.4336,4.9741c-0.4961,0.2573-2.4785,1.4321-3.9648,2.2764l-4.6807,2.7895l-9.4531,5.4698
				l-9.4522,5.5434l-4.7353,2.7529l-1.1934,0.6978l-0.6973,0.3667l-1.3584,0.771l-11.7099,6.4429l3.8174,11.4716l1.0459,3.0469
				l1.6338,4.5332l3.4511,9.5445c4.3495,10.5542,6.3692,20.5756,5.873,27.0551H710.916z"/>
		</g>
	</g>
	<g id="XMLID_312_">
		<g>
			<path class="st20" d="M198.6191,264.0039l138.7618,114.9922h0.018c0.9546-10.2056-3.3955-22.0811-15.5464-32.8003
				c-5.9653-5.249-11.8935-10.0395-17.8222-14.4268l-52.9717-42.9863l-26.4673-21.4936l-13.2158-10.7193l-3.3218-2.6977
				l-1.689-1.3399c-0.1469-0.1289-0.2202-0.1836-0.3671-0.2754l-1.6885-0.9731l-0.4771-1.2114l-0.2202-0.6241l-0.147-0.33
				l-0.2939-1.4136l-2.7529-11.6553l-5.5064-23.4018l-5.4883-23.3843l-1.413-5.8364c-0.147-0.6246-0.147-0.5694-0.2022-0.753
				l-0.165-0.4585l-0.2754-0.9731l-1.3213-4.0381l3.1567-3.5791l0.8443-0.9912l2.4047-2.3311l4.9742-4.8452l19.9331-19.438
				l19.9145-19.456l2.46-2.4229l0.5688-0.5322l0.2388-0.312l0.5689-0.5874l2.2578-2.4229l4.8086-5.0654l9.4526,4.9741
				c0.5322,0.2383,2.5146,1.4317,4.0015,2.294l4.7172,2.7719l9.4161,5.5064l9.434,5.5244l4.7173,2.7349l1.2115,0.7158l0.6606,0.3857
				l1.4136,0.7339l11.6367,6.4429l-3.7627,11.4717l-1.0464,3.0468l-1.6333,4.5332l-3.4507,9.5445
				c-4.332,10.5356-6.3691,20.539-5.8735,27.0185l25.7881-60.4604l-64.4615-39.6831l-84.0463,73.6577L198.6191,264.0039z"/>
			<path class="st19" d="M337.3809,378.9961L198.6191,264.0039l-32.2675-87.5703l84.0463-73.6577l64.4615,39.6831l-25.7881,60.4604
				c0.2754,3.7627,1.395,6.314,3.3955,7.1397c5.4697,2.2392,15.3994-9.4527,22.2275-26.0454l4.2032-9.2324l2.2212-4.8086
				l2.7895-6.3511l11.5454-25.9903l-25.1279-17.1245l-5.9282-4.0747l-4.4605-3.1386l-8.9936-6.2774l-18.667-12.9585
				l-27.3116-18.5932l-15.8217,13.5087l-8.1128,6.8833l-3.7813,3.2305l-2.6977,2.2393l-21.4019,17.749l-21.4385,17.7856
				l-5.3779,4.4419l-2.7529,2.294l-4.3135,3.708l-17.5654,15.0141l3.2856,19.4927l1.6153,9.5991l0.9541,5.9654l3.5424,23.7329
				l3.5611,23.751l1.7988,11.8755l3.3769,20.0063l11.1231,10.2603l2.79,2.5512l1.5786,1.4688l3.0469,2.9731l12.3345,11.7837
				l24.687,23.5308l49.2637,47.0981c5.103,5.3233,10.646,10.6094,16.5928,15.8218c26.6328,23.4756,54.0913,9.1226,56.1469-13.2334
				H337.3809z"/>
		</g>
	</g>
	<g>
		<path class="st21" d="M423.8325,278.4678c0,0,422.7124-124.1836,348.689,217.3286
			c-74.041,341.5371-109.8555,425.1055-19.1016,422.7329c90.7442-2.3975,81.1914,42.9814-66.8847,57.313
			c-148.0645,14.3286-16.7071-181.5098-150.4512-171.9424c-133.7544,9.5562-174.3403,54.9072-174.3403,105.0689
			c0,50.1635-7.1783,67.6406-66.8804,67.6406c-59.7066,0-126.583-3.1529-59.7066-43.7505
			c66.8731-40.5982,71.6475-52.5425,45.3692-207.793C254.2573,569.8418,99.0288,362.0552,423.8325,278.4678z"/>
		<path class="st22" d="M735.8496,600.9644c-4.3906,20.7944-15.1973,40.1469-28.6074,30.2338
			c-21.8477-16.1533,5.0215-83.6274,25.2578-68.4345C738.7949,567.4751,739.2852,584.6729,735.8496,600.9644z"/>
		<path class="st22" d="M751.9395,526.1812c-2.2012,10.4101-7.6153,20.0815-14.3184,15.121
			c-10.9336-8.0839,2.5098-41.8418,12.6406-34.2446C753.4121,509.4121,753.6582,518.0249,751.9395,526.1812z"/>
		<path class="st22" d="M703.7539,543.6401c-1.1797,5.5791-4.084,10.7784-7.6816,8.1133
			c-5.8615-4.3183,1.3515-22.4551,6.7812-18.3584C704.5508,534.6514,704.6777,539.2676,703.7539,543.6401z"/>
		<path class="st22" d="M682.7773,585.3438c-1.8496,8.726-6.375,16.8496-12.0019,12.6704
			c-9.168-6.7647,2.1035-35.0669,10.5879-28.7007C684.0098,571.2935,684.2109,578.4976,682.7773,585.3438z"/>
		<path class="st22" d="M686.5742,617.1611c-0.7441,3.4981-2.5586,6.7456-4.8086,5.085
			c-3.6797-2.7163,0.8477-14.0737,4.2422-11.5093C687.0801,611.5352,687.1445,614.4189,686.5742,617.1611z"/>
		<path class="st22" d="M670.2754,543.2778c-0.7441,3.4854-2.5645,6.7344-4.8145,5.0714c-3.6816-2.7163,0.8399-14.06,4.2422-11.5093
			C670.7695,537.6382,670.8438,540.5229,670.2754,543.2778z"/>
		<path class="st22" d="M764.0625,486.3862c-1.2012,5.6983-4.1582,10.981-7.8223,8.2691
			c-5.9726-4.4082,1.3789-22.8614,6.9005-18.689C764.8594,477.2441,764.9961,481.9453,764.0625,486.3862z"/>
		<path class="st22" d="M727.3555,497.3022c-2.2365,10.6065-7.7383,20.4561-14.5625,15.4024
			c-11.1486-8.229,2.5566-42.6231,12.8535-34.8901C728.8633,480.2432,729.1055,488.9927,727.3555,497.3022z"/>
		<path class="st22" d="M723.2754,660.5498c-1.207,5.686-4.1641,10.9683-7.8242,8.2666c-5.9706-4.4185,1.375-22.8584,6.9023-18.707
			C724.084,651.4048,724.209,656.103,723.2754,660.5498z"/>
	</g>
	<g>
		<g id="XMLID_157_">
			<g>
				<path class="st5" d="M365.7183,744.5952c6.7514-5.0942,13.4795-9.9448,20.0068-14.5249
					c148.9722-103.9067,248.8325-78.6689,286.9683-61.5249c11.4726,5.1983,17.3593,9.6079,17.3593,9.6079
					c28.8897-77.8091,31.3223-109.4223,26.5137-141.6367l-38.9209,61.3379l-42.5557-49.1763l-28.9863,59.8555l-42.498-49.1851
					l-36.9219,61.0401l-39.9111-49.5713L455.1914,631l-39.9111-49.5713l-28.9185,59.9053l-39.9111-49.5708l-18.3452,58.2666
					l-47.2598-48.4741c8.8628,59.374,40.5737,109.5677,84.8223,143.1069L365.7183,744.5952z"/>
				<path class="st23" d="M672.6934,668.5454c-38.1358-17.144-137.9961-42.3818-286.9683,61.5249
					c0,0,67.2168,42.0698,149.3999,29.8023C617.3076,747.6055,672.6934,668.5454,672.6934,668.5454z"/>
				<path class="st24" d="M690.0527,678.1533c0,0-5.8867-4.4096-17.3593-9.6079c0,0-55.3858,79.0601-137.5684,91.3272
					c-82.1831,12.2675-149.3999-29.8023-149.3999-29.8023c-6.5273,4.5801-13.2554,9.4307-20.0068,14.5249l-0.0503,0.0674
					c45.6591,34.5308,104.5468,51.4014,165.5664,42.293c60.1386-8.9766,110.9912-41.5074,144.5488-86.8405
					C680.9844,693.0889,685.7207,685.771,690.0527,678.1533z"/>
			</g>
		</g>
	</g>
	<g>
		<g id="XMLID_11_">
			<g>
				<path class="st9" d="M334.6978,441.7485c0-13.81,11.1416-24.9067,24.9292-24.9067c13.7431,0,24.8842,11.0967,24.8842,24.9067
					c0,13.7657-11.1411,24.9292-24.8842,24.9292C345.8394,466.6777,334.6978,455.5142,334.6978,441.7485z"/>
				<path class="st25" d="M376.3057,395.3599c39.3838,0,71.3623,31.956,71.3623,71.4067c0,39.3838-31.9785,71.3179-71.3623,71.3179
					c-39.4287,0-71.4073-31.9341-71.4073-71.3179C304.8984,427.3159,336.877,395.3599,376.3057,395.3599z M420.1372,486.9365
					c0-6.8716-5.582-12.4756-12.4311-12.4756c-6.9165,0-12.4761,5.604-12.4761,12.4756c0,6.8716,5.5596,12.4536,12.4761,12.4536
					C414.5552,499.3901,420.1372,493.8081,420.1372,486.9365z M359.627,416.8418c-13.7876,0-24.9292,11.0967-24.9292,24.9067
					c0,13.7657,11.1416,24.9292,24.9292,24.9292c13.7431,0,24.8842-11.1635,24.8842-24.9292
					C384.5112,427.9385,373.3701,416.8418,359.627,416.8418z"/>
				<path class="st9" d="M447.668,466.7666c0-39.4507-31.9785-71.4067-71.3623-71.4067c-39.4287,0-71.4073,31.956-71.4073,71.4067
					c0,39.3838,31.9786,71.3179,71.4073,71.3179C415.6895,538.0845,447.668,506.1504,447.668,466.7666z M376.3057,344.5234
					c64.8911,0,117.9511,50.6138,121.8872,114.5708c-8.7173,63.7793-63.4898,112.9034-129.6704,112.9034
					c-39.0728,0-74.1426-17.1011-98.1377-44.2095h-0.022c-10.3853-17.9463-16.3228-38.7832-16.3228-61.0215
					C254.04,399.229,308.7905,344.5234,376.3057,344.5234z"/>
				<path class="st26" d="M498.1929,459.0942c0.1557,2.5352,0.2446,5.0928,0.2446,7.6724
					c0,67.4482-54.6611,122.1543-122.1318,122.1543c-45.2774,0-84.7945-24.5952-105.9429-61.1328h0.022
					c23.9951,27.1084,59.0649,44.2095,98.1377,44.2095C434.7031,571.9976,489.4756,522.8735,498.1929,459.0942z"/>
				<path class="st9" d="M395.23,486.9365c0-6.8716,5.5596-12.4756,12.4761-12.4756c6.8491,0,12.4311,5.604,12.4311,12.4756
					c0,6.8716-5.582,12.4536-12.4311,12.4536C400.7896,499.3901,395.23,493.8081,395.23,486.9365z"/>
			</g>
		</g>
	</g>
	<g>
		<g id="XMLID_10_">
			<g>
				<path class="st25" d="M623.6133,346.1011c36.793,0,66.6133,29.7993,66.6133,66.5508c0,36.7719-29.8203,66.6132-66.6133,66.6132
					c-36.792,0-66.5713-29.8413-66.5713-66.6132C557.042,375.9004,586.8213,346.1011,623.6133,346.1011z M631.3125,389.3892
					c0-12.8663-10.417-23.3042-23.2627-23.3042c-12.8037,0-23.2422,10.4379-23.2422,23.3042
					c0,12.8247,10.4385,23.2212,23.2422,23.2212C620.8955,412.6104,631.3125,402.2139,631.3125,389.3892z M652.957,419.8735
					c-6.4745,0-11.6631,5.188-11.6631,11.6416c0,6.4121,5.1885,11.6211,11.6631,11.6211c6.3701,0,11.5996-5.209,11.5996-11.6211
					C664.5566,425.0615,659.3271,419.8735,652.957,419.8735z"/>
				<path class="st26" d="M616.3926,510.8906c61.7363,0,112.7851-45.7783,121.0449-105.2529
					c0.166,2.3242,0.2275,4.6689,0.2275,7.0142c0,63.0229-51.0283,114.0307-114.0517,114.0307
					c-42.209,0-79.0635-22.9097-98.7988-57.0049l0.0419-0.021C547.2061,494.9326,579.9521,510.8906,616.3926,510.8906z"/>
				<path class="st9" d="M608.0498,366.085c12.8457,0,23.2627,10.4379,23.2627,23.3042c0,12.8247-10.417,23.2212-23.2627,23.2212
					c-12.8037,0-23.2422-10.3965-23.2422-23.2212C584.8076,376.5229,595.2461,366.085,608.0498,366.085z"/>
				<path class="st9" d="M641.2939,431.5151c0-6.4536,5.1885-11.6416,11.6631-11.6416c6.3701,0,11.5996,5.188,11.5996,11.6416
					c0,6.4121-5.2295,11.6211-11.5996,11.6211C646.4824,443.1362,641.2939,437.9272,641.2939,431.5151z"/>
				<path class="st9" d="M509.5625,412.6519c0-62.961,51.0693-114.0308,114.0508-114.0308
					c60.6582,0,110.2129,47.314,113.8242,107.0166c-8.2598,59.4746-59.3086,105.2529-121.0449,105.2529
					c-36.4405,0-69.1865-15.958-91.5362-41.2339l-0.0419,0.021C515.124,452.9102,509.5625,433.4243,509.5625,412.6519z
					 M690.2266,412.6519c0-36.7515-29.8203-66.5508-66.6133-66.5508c-36.792,0-66.5713,29.7993-66.5713,66.5508
					c0,36.7719,29.7793,66.6132,66.5713,66.6132C660.4063,479.2651,690.2266,449.4238,690.2266,412.6519z"/>
			</g>
		</g>
	</g>
</g>
</svg>
