<?xml version="1.0" encoding="utf-8"?>
<!-- Generator: Adobe Illustrator 22.1.0, SVG Export Plug-In . SVG Version: 6.00 Build 0)  -->
<svg version="1.1" id="monster" xmlns="http://www.w3.org/2000/svg" xmlns:xlink="http://www.w3.org/1999/xlink" x="0px" y="0px"
	 viewBox="0 0 1000 1000" style="enable-background:new 0 0 1000 1000;" xml:space="preserve">
<style type="text/css">
	.st0{fill:#C783B7;}
	.st1{fill:#125785;}
	.st2{fill:#8E4C87;}
	.st3{fill:#1B70B6;}
	.st4{fill:#66A0D7;}
	.st5{fill:#1E1F1D;}
	.st6{fill:#A3201B;}
	.st7{fill:#E32D28;}
	.st8{fill:url(#SVGID_1_);}
	.st9{fill:#FFFFFF;}
	.st10{fill:#D5418F;}
	.st11{fill:#E3C724;}
	.st12{fill:#A7C833;}
	.st13{fill:#E6362C;}
	.st14{fill:#C72C28;}
	.st15{fill:#E3AB28;}
	.st16{fill:#9DC42B;}
	.st17{fill:#FADF21;}
	.st18{fill:#CA9220;}
	.st19{fill:#94C128;}
	.st20{fill:#74922B;}
	.st21{fill:#59AE33;}
	.st22{fill:#499834;}
	.st23{fill:#E62A46;}
	.st24{fill:#CD163B;}
	.st25{fill:#063E51;}
	.st26{fill:#B2B1B0;}
	.st27{fill:#E62A3B;}
	.st28{fill:#CA152C;}
	.st29{fill:url(#SVGID_2_);}
	.st30{fill:url(#SVGID_3_);}
	.st31{fill:#C71B1B;}
	.st32{fill:#E52523;}
	.st33{fill:url(#SVGID_4_);}
	.st34{fill:#E43333;}
	.st35{fill:#9C1C1B;}
	.st36{fill:#C8C7C7;}
	.st37{fill:#C39E05;}
	.st38{fill:#E5B90D;}
	.st39{fill:#F1C906;}
	.st40{fill:#F7B21C;}
	.st41{fill:#566EB3;}
	.st42{fill:#4081C2;}
	.st43{fill:#F2AABB;}
	.st44{fill:#EA6379;}
	.st45{fill:#C83C5A;}
	.st46{fill:#CF4162;}
	.st47{fill:#B01C1C;}
	.st48{fill:#E52923;}
	.st49{fill:#125B95;}
	.st50{fill:#EEEDED;}
	.st51{fill:#B1B1B0;}
	.st52{fill:#98C01E;}
	.st53{fill:url(#SVGID_5_);}
	.st54{fill:#5DC2DB;}
	.st55{fill:url(#SVGID_6_);}
	.st56{fill:url(#SVGID_7_);}
	.st57{fill:#030405;}
	.st58{fill:#8666A4;}
	.st59{fill:#AE8FC2;}
	.st60{fill:#8860A3;}
	.st61{fill:#704693;}
	.st62{fill:#C8C6C7;}
	.st63{fill:#A7C835;}
	.st64{fill:#64B335;}
	.st65{fill:#174865;}
	.st66{fill:#5895C5;}
	.st67{fill:#4F2672;}
	.st68{fill:url(#SVGID_8_);}
	.st69{fill:url(#SVGID_9_);}
	.st70{fill:url(#SVGID_10_);}
	.st71{fill:url(#SVGID_11_);}
	.st72{fill:#FAB21E;}
	.st73{fill:#FBD704;}
	.st74{fill:#FAC00F;}
</style>
<g>
	<g>
		<g>
			<g id="XMLID_91_">
				<g>
					<path class="st43" d="M262.5454,932.4766c0,0,0.7534,25.4306-25.9687,27.6186c-4.7701-3.4433-7.8907-9.0747-7.8907-15.459
						c0-10.5454,8.5723-19.1181,19.0816-19.1181C253.7217,925.5181,259.0303,928.2441,262.5454,932.4766z"/>
					<path class="st44" d="M358.3135,809.5928V439.8999h45.9111v379.1616C388.1914,811.063,358.3135,809.5928,358.3135,809.5928z"/>
					<path class="st45" d="M358.3135,827.3472v-17.7545c0,0,29.8779,1.4702,45.9111,9.4688v19.8711
						C390.0205,832.584,374.5615,828.5669,358.3135,827.3472z"/>
					<path class="st46" d="M262.5454,932.4766c2.7261,3.2998,4.376,7.5322,4.376,12.1596c0,10.5811-8.5728,19.1177-19.1538,19.1177
						c-4.1963,0-8.0342-1.3633-11.1909-3.6587C263.2988,957.9072,262.5454,932.4766,262.5454,932.4766z"/>
					<path class="st43" d="M284.0664,882.7637c0,0,0.7891,25.3945-25.9326,27.5825c-4.8067-3.4077-7.9273-9.0747-7.9273-15.4233
						c0-10.5811,8.6084-19.1177,19.1539-19.1177c5.9184,0,11.2265,2.6899,14.7417,6.9585H284.0664z"/>
					<path class="st46" d="M284.1021,882.7637c2.726,3.2998,4.3759,7.5322,4.3759,12.1592c0,10.5454-8.5722,19.1176-19.1176,19.1176
						c-4.1968,0-8.0704-1.3629-11.2266-3.6943c26.7217-2.188,25.9326-27.5825,25.9326-27.5825H284.1021z"/>
					<path class="st44" d="M486.4702,965.6904c0,5.524-0.3945,11.0117-1.0044,16.356h-275.539
						c-0.5738-5.3443-1.0044-10.832-1.0044-16.356c0-76.6499,62.1596-138.7379,138.81-138.7379
						c3.5508,0,7.0659,0.1436,10.5811,0.3947c16.248,1.2197,31.707,5.2368,45.9111,11.5854
						C452.6821,860.561,486.4702,909.1626,486.4702,965.6904z M288.478,894.9229c0-4.627-1.6499-8.8594-4.3759-12.1592
						c-3.5152-4.2686-8.8233-6.9585-14.7417-6.9585c-10.5455,0-19.1539,8.5366-19.1539,19.1177
						c0,6.3486,3.1206,12.0156,7.9273,15.4233c3.1562,2.3315,7.0298,3.6943,11.2266,3.6943
						C279.9058,914.0405,288.478,905.4683,288.478,894.9229z M266.9214,944.6362c0-4.6274-1.6499-8.8598-4.376-12.1596
						c-3.5151-4.2325-8.8237-6.9585-14.7778-6.9585c-10.5093,0-19.0816,8.5727-19.0816,19.1181
						c0,6.3843,3.1206,12.0157,7.8907,15.459c3.1567,2.2954,6.9946,3.6587,11.1909,3.6587
						C258.3486,963.7539,266.9214,955.2173,266.9214,944.6362z"/>
				</g>
			</g>
		</g>
	</g>
	<g>
		<g>
			<g id="XMLID_92_">
				<g>
					<path class="st46" d="M700.4775,882.7637c-2.726,3.2998-4.3759,7.5322-4.3759,12.1592
						c0,10.5454,8.5722,19.1176,19.1537,19.1176c4.1606,0,8.0342-1.3629,11.1904-3.6943
						C699.6885,908.1582,700.4775,882.7637,700.4775,882.7637z"/>
					<path class="st43" d="M700.4775,882.7637c0,0-0.789,25.3945,25.9683,27.5825c4.7705-3.4077,7.8911-9.0747,7.8911-15.4233
						c0-10.5811-8.5723-19.1177-19.0815-19.1177C709.3013,875.8052,703.9927,878.4951,700.4775,882.7637z"/>
					<path class="st44" d="M626.2305,439.8999H580.355v379.1616c16.0688-7.9985,45.8755-9.4688,45.8755-9.4688V439.8999z"/>
					<path class="st44" d="M696.1016,894.9229c0-4.627,1.6499-8.8594,4.3759-12.1592c3.5152-4.2686,8.8238-6.9585,14.7779-6.9585
						c10.5092,0,19.0815,8.5366,19.0815,19.1177c0,6.3486-3.1206,12.0156-7.8911,15.4233
						c-3.1562,2.3315-7.0298,3.6943-11.1904,3.6943C704.6738,914.0405,696.1016,905.4683,696.1016,894.9229z M736.812,925.5181
						c10.5093,0,19.0816,8.5727,19.0816,19.1181c0,6.3843-3.1202,12.0157-7.8907,15.459
						c-3.1567,2.2954-6.9946,3.6587-11.1909,3.6587c-10.581,0-19.1538-8.5366-19.1538-19.1177c0-4.6274,1.6499-8.8598,4.376-12.1596
						C725.5493,928.2441,730.8579,925.5181,736.812,925.5181z M774.6167,982.0464c0.6099-5.3443,1.0405-10.832,1.0405-16.356
						c0-76.6499-62.1596-138.7379-138.8095-138.7379c-3.5513,0-7.1021,0.1436-10.6172,0.3947
						c-16.2124,1.2197-31.6714,5.2368-45.8755,11.5854c-48.4575,21.6284-82.2095,70.23-82.2095,126.7578
						c0,5.524,0.3584,11.0117,1.0044,16.356H774.6167z"/>
					<path class="st46" d="M722.0342,932.4766c-2.7261,3.2998-4.376,7.5322-4.376,12.1596c0,10.5811,8.5728,19.1177,19.1538,19.1177
						c4.1963,0,8.0342-1.3633,11.1909-3.6587C721.2451,957.9072,722.0342,932.4766,722.0342,932.4766z"/>
					<path class="st45" d="M580.355,819.0615v19.8711c14.2041-6.3486,29.6631-10.3657,45.8755-11.5854v-17.7545
						C626.2305,809.5928,596.4238,811.063,580.355,819.0615z"/>
					<path class="st43" d="M755.8936,944.6362c0-10.5454-8.5723-19.1181-19.0816-19.1181c-5.9541,0-11.2627,2.726-14.7778,6.9585
						c0,0-0.7891,25.4306,25.9688,27.6186C752.7734,956.6519,755.8936,951.0205,755.8936,944.6362z"/>
				</g>
			</g>
		</g>
	</g>
	<path class="st44" d="M652.5151,140.0576c32.835-34.1504,65.2388-44.5469,65.2388-44.5469
		c-42.2383,4.1094-76.564,13.2129-103.7588,23.709c-25.7236-11.375-53.4785-19.0254-82.5986-22.125
		c69.3799-56.7617,128.206-79.1386,128.206-79.1386c-300.5151,54.9365-371.58,177.746-371.58,177.746v0.0245
		c-40.1026,48.1699-64.2676,110.0888-64.2676,177.6689c0,153.4854,124.437,277.8994,277.9111,277.8994
		c153.4873,0,277.9082-124.414,277.9082-277.8994C779.5742,275.5479,728.9395,189.5713,652.5151,140.0576z"/>
	<g>
		<g id="XMLID_6_">
			<g>
				<path class="st25" d="M269.0435,307.9111c0-43.188,34.9838-78.1718,78.1474-78.1718c43.1148,0,78.0987,34.9838,78.0987,78.1718
					c0,43.1153-34.9839,78.0743-78.0987,78.0743C304.0273,385.9854,269.0435,351.0264,269.0435,307.9111z M395.1748,329.9922
					c0-7.5225-6.1108-13.6577-13.5845-13.6577c-7.5713,0-13.6821,6.1352-13.6821,13.6577c0,7.5224,6.1108,13.6333,13.6821,13.6333
					C389.064,343.6255,395.1748,337.5146,395.1748,329.9922z M356.1743,280.5229c0-15.1181-12.2212-27.2661-27.2422-27.2661
					c-15.0937,0-27.3149,12.148-27.3149,27.2661c0,15.0699,12.2212,27.2911,27.3149,27.2911
					C343.9531,307.814,356.1743,295.5928,356.1743,280.5229z"/>
				<path class="st9" d="M347.1909,174.0869c71.0386,0,129.1255,55.4092,133.4346,125.4253
					c-9.543,69.8213-69.5293,123.5996-141.98,123.5996c-42.7495,0-81.1416-18.7212-107.4097-48.3979h-0.0244
					c-11.3935-19.6465-17.8935-42.482-17.8935-66.8028C213.3179,233.9756,273.2793,174.0869,347.1909,174.0869z M425.2896,307.9111
					c0-43.188-34.9839-78.1718-78.0987-78.1718c-43.1636,0-78.1474,34.9838-78.1474,78.1718
					c0,43.1153,34.9838,78.0743,78.1474,78.0743C390.3057,385.9854,425.2896,351.0264,425.2896,307.9111z"/>
				<path class="st9" d="M301.6172,280.5229c0-15.1181,12.2212-27.2661,27.3149-27.2661c15.021,0,27.2422,12.148,27.2422,27.2661
					c0,15.0699-12.2212,27.2911-27.2422,27.2911C313.8384,307.814,301.6172,295.5928,301.6172,280.5229z"/>
				<path class="st9" d="M381.5903,316.3345c7.4737,0,13.5845,6.1352,13.5845,13.6577c0,7.5224-6.1108,13.6333-13.5845,13.6333
					c-7.5713,0-13.6821-6.1109-13.6821-13.6333C367.9082,322.4697,374.019,316.3345,381.5903,316.3345z"/>
				<path class="st26" d="M480.8936,307.9111c0,73.8384-59.8399,133.7271-133.7027,133.7271
					c-49.5664,0-92.852-26.9253-115.9795-66.9243h0.0244c26.2681,29.6767,64.6602,48.3979,107.4097,48.3979
					c72.4507,0,132.437-53.7783,141.98-123.5996C480.7959,302.2876,480.8936,305.0874,480.8936,307.9111z"/>
			</g>
		</g>
	</g>
	<g>
		<g id="XMLID_5_">
			<g>
				<path class="st9" d="M691.6943,317.0972c7.4986,0,13.6089,6.0859,13.6089,13.6572c0,7.5225-6.1104,13.6333-13.6089,13.6333
					c-7.5952,0-13.6816-6.1108-13.6816-13.6333C678.0127,323.1831,684.0991,317.0972,691.6943,317.0972z"/>
				<path class="st9" d="M611.77,281.334c0-15.0938,12.2212-27.3394,27.2422-27.3394c15.0938,0,27.3149,12.2456,27.3149,27.3394
					c0,15.0454-12.2211,27.2422-27.3149,27.2422C623.9912,308.5762,611.77,296.3794,611.77,281.334z"/>
				<path class="st25" d="M735.418,308.625c0,43.1392-34.9835,78.1475-78.147,78.1475c-43.1641,0-78.0991-35.0083-78.0991-78.1475
					c0-43.1152,34.935-78.0747,78.0991-78.0747C700.4346,230.5503,735.418,265.5098,735.418,308.625z M705.3032,330.7544
					c0-7.5713-6.1104-13.6572-13.6089-13.6572c-7.5952,0-13.6816,6.0859-13.6816,13.6572c0,7.5225,6.0864,13.6333,13.6816,13.6333
					C699.1929,344.3877,705.3032,338.2769,705.3032,330.7544z M639.0122,253.9946c-15.021,0-27.2422,12.2456-27.2422,27.3394
					c0,15.0454,12.2212,27.2422,27.2422,27.2422c15.0938,0,27.3149-12.1968,27.3149-27.2422
					C666.3271,266.2402,654.106,253.9946,639.0122,253.9946z"/>
				<path class="st26" d="M791.0952,308.625c0,73.9355-59.8887,133.7754-133.8242,133.7754
					c-49.5181,0-92.7549-26.8765-115.8823-66.8755l0.0244-0.0244c26.2192,29.6523,64.6357,48.3735,107.3857,48.3735
					c72.4507,0,132.3638-53.7539,142.0283-123.5752C790.9976,303.0498,791.0952,305.8252,791.0952,308.625z"/>
				<path class="st9" d="M735.418,308.625c0-43.1152-34.9835-78.0747-78.147-78.0747c-43.1641,0-78.0991,34.9595-78.0991,78.0747
					c0,43.1392,34.935,78.1475,78.0991,78.1475C700.4346,386.7725,735.418,351.7642,735.418,308.625z M523.4951,308.625
					c0-73.8628,59.8887-133.7759,133.7759-133.7759c71.1357,0,129.2715,55.458,133.5561,125.4497
					c-9.6645,69.8213-69.5776,123.5752-142.0283,123.5752c-42.75,0-81.1665-18.7212-107.3857-48.3735l-0.0244,0.0244
					C530.0195,355.854,523.4951,333.0186,523.4951,308.625z"/>
			</g>
		</g>
	</g>
	<g>
		<g id="XMLID_7_">
			<g>
				<path class="st5" d="M373.584,491.2422h256.1704c-5.2437,43.8828-32.4829,81.0239-70.3911,100.0058
					c-0.6763-0.9682-1.4253-1.9184-2.2837-2.8501c-9.208-10.103-28.5913-17.246-51.3731-18.0136l-4.0376,4.2202l-4.0376-4.2202
					c-22.8178,0.7676-42.2197,7.9292-51.4091,18.0317c-0.8589,0.9136-1.626,1.8638-2.2837,2.832
					C406.0298,572.248,378.7905,535.125,373.584,491.2422z"/>
				<path class="st47" d="M446.2222,588.416c0.749,0.3657,23.4941,11.6924,55.4467,11.6924
					c31.9346,0,54.6617-11.3267,55.4107-11.7105c0.8584,0.9317,1.6074,1.8819,2.2837,2.8501
					c-17.356,8.7144-36.959,13.6104-57.6944,13.6104c-20.7539,0-40.3564-4.896-57.7304-13.6104
					C444.5962,590.2798,445.3633,589.3296,446.2222,588.416z"/>
				<path class="st48" d="M446.2222,588.416c9.1894-10.1025,28.5913-17.2641,51.4091-18.0317l4.0376,4.2202l4.0376-4.2202
					c22.7818,0.7676,42.1651,7.9106,51.3731,18.0136c-0.749,0.3838-23.4761,11.7105-55.4107,11.7105
					C469.7163,600.1084,446.9712,588.7817,446.2222,588.416z"/>
			</g>
		</g>
	</g>
</g>
</svg>
