<?xml version="1.0" encoding="utf-8"?>
<!-- Generator: Adobe Illustrator 22.1.0, SVG Export Plug-In . SVG Version: 6.00 Build 0)  -->
<svg version="1.1" id="monster" xmlns="http://www.w3.org/2000/svg" xmlns:xlink="http://www.w3.org/1999/xlink" x="0px" y="0px"
	 viewBox="0 0 1000 1000" style="enable-background:new 0 0 1000 1000;" xml:space="preserve">
<style type="text/css">
	.st0{fill:#C783B7;}
	.st1{fill:#125785;}
	.st2{fill:#8E4C87;}
	.st3{fill:#1B70B6;}
	.st4{fill:#66A0D7;}
	.st5{fill:#1E1F1D;}
	.st6{fill:#A3201B;}
	.st7{fill:#E32D28;}
	.st8{fill:url(#SVGID_1_);}
	.st9{fill:#FFFFFF;}
	.st10{fill:#D5418F;}
	.st11{fill:#E3C724;}
	.st12{fill:#A7C833;}
	.st13{fill:#E6362C;}
	.st14{fill:#C72C28;}
	.st15{fill:#E3AB28;}
	.st16{fill:#9DC42B;}
	.st17{fill:#FADF21;}
	.st18{fill:#CA9220;}
	.st19{fill:#94C128;}
	.st20{fill:#74922B;}
	.st21{fill:#59AE33;}
	.st22{fill:#499834;}
	.st23{fill:#E62A46;}
	.st24{fill:#CD163B;}
	.st25{fill:#063E51;}
	.st26{fill:#B2B1B0;}
	.st27{fill:#E62A3B;}
	.st28{fill:#CA152C;}
	.st29{fill:url(#SVGID_2_);}
	.st30{fill:url(#SVGID_3_);}
	.st31{fill:#C71B1B;}
	.st32{fill:#E52523;}
	.st33{fill:url(#SVGID_4_);}
	.st34{fill:#E43333;}
	.st35{fill:#9C1C1B;}
	.st36{fill:#C8C7C7;}
	.st37{fill:#C39E05;}
	.st38{fill:#E5B90D;}
	.st39{fill:#F1C906;}
	.st40{fill:#F7B21C;}
	.st41{fill:#566EB3;}
	.st42{fill:#4081C2;}
	.st43{fill:#F2AABB;}
	.st44{fill:#EA6379;}
	.st45{fill:#C83C5A;}
	.st46{fill:#CF4162;}
	.st47{fill:#B01C1C;}
	.st48{fill:#E52923;}
	.st49{fill:#125B95;}
	.st50{fill:#EEEDED;}
	.st51{fill:#B1B1B0;}
	.st52{fill:#98C01E;}
	.st53{fill:url(#SVGID_5_);}
	.st54{fill:#5DC2DB;}
	.st55{fill:url(#SVGID_6_);}
	.st56{fill:url(#SVGID_7_);}
	.st57{fill:#030405;}
	.st58{fill:#8666A4;}
	.st59{fill:#AE8FC2;}
	.st60{fill:#8860A3;}
	.st61{fill:#704693;}
	.st62{fill:#C8C6C7;}
	.st63{fill:#A7C835;}
	.st64{fill:#64B335;}
	.st65{fill:#174865;}
	.st66{fill:#5895C5;}
	.st67{fill:#4F2672;}
	.st68{fill:url(#SVGID_8_);}
	.st69{fill:url(#SVGID_9_);}
	.st70{fill:url(#SVGID_10_);}
	.st71{fill:url(#SVGID_11_);}
	.st72{fill:#FAB21E;}
	.st73{fill:#FBD704;}
	.st74{fill:#FAC00F;}
</style>
<g>
	<path class="st54" d="M382.3555,746.5137c-10.3614,82.7462-62.0899,170.6845-62.0899,170.6845s67.2383-12.9296,72.4063,20.6875
		c5.1797,33.6192-33.6074,38.8096-33.6074,38.8096H219.3984c-33.6191,5.1709-33.6191-20.709-33.6191-20.709s0-457.7763,0-548.2832
		c0-90.5283-2.6016-139.6758,33.6191-165.5449c36.2207-25.8603,408.6387-116.3877,408.6387-116.3877
		s75.0078-20.1025,62.0645-103.165c0,0,88.3535,121.2832,1.5254,253.1699c0,0,52.7959,47.8642,52.7959,268.3389
		c0,220.4873,0,370.4921,0,370.4921s69.8388,2.5918,69.8388,33.6211c0,31.0391-43.9785,29.1446-82.7558,29.1446
		c-38.8125,0-131.9082,0-131.9082,0s-28.4483-0.6866-33.628-52.4043c-5.1709-51.7393-12.9306-201.7549-12.9306-201.7549
		L382.3555,746.5137z"/>
	<g>
		<g id="XMLID_16_">
			<g>
				<path class="st5" d="M626.8808,467.5036v67.6242c0,0-1.0244,81.2012-42.3885,139.6252c0,0-3.222-4.8237-9.9825-11.5469
					c-15.3649-15.2532-49.0187-40.2095-104.7794-40.2095c-56.3939,0-90.1595,25.5337-105.2823,40.7496
					c-6.4067,6.4253-9.4611,11.0068-9.4611,11.0068l-0.0186,0.0186c-41.327-58.4239-42.3327-139.6438-42.3327-139.6438v-67.6242
					h28.9419v11.6401v114.5012l51.4212-99.3039l23.4478,33.5234l24.9563-29.7055l28.3273,32.3874l24.5094-32.3874l24.975,29.7055
					l23.4664-33.5234l51.3654,99.3039V479.1436v-11.6401H626.8808z"/>
				<polygon class="st9" points="594.0464,479.1436 594.0464,593.6448 542.6811,494.3409 519.2147,527.8644 494.2397,498.1589 
					469.7303,530.5463 441.403,498.1589 416.4467,527.8644 392.9988,494.3409 341.5776,593.6448 341.5776,479.1436 				"/>
				<polygon class="st36" points="594.0464,467.5036 594.0464,479.1436 341.5776,479.1436 341.5776,467.5036 469.7303,467.5036 				
					"/>
				<path class="st35" d="M574.5097,663.2061c6.7606,6.7233,9.9825,11.5469,9.9825,11.5469
					c-23.2057,32.8157-59.1317,58.424-114.7619,58.424c-55.6117,0-91.5377-25.6082-114.762-58.4053l0.0186-0.0186
					c0,0,3.0544-4.5815,9.4611-11.0068c21.753,29.0164,54.7922,51.2164,104.8167,51.2164
					c50.3597,0,83.4548-22.4608,105.2078-51.7379L574.5097,663.2061z"/>
				<path class="st34" d="M574.5097,663.2061l-0.0372,0.0186c-21.753,29.2771-54.8481,51.7379-105.2078,51.7379
					c-50.0244,0-83.0637-22.2-104.8167-51.2164c15.1228-15.2159,48.8884-40.7496,105.2823-40.7496
					C525.491,622.9965,559.1448,647.9529,574.5097,663.2061z"/>
			</g>
		</g>
	</g>
	<g>
		<g id="XMLID_17_">
			<g>
				<path class="st5" d="M382.2047,409.5715c13.1703-4.7087,28.8542-8.7448,47.4058-11.2939
					c13.4535-1.841,28.4294-2.9031,45.0338-2.9031s31.5449,1.0621,44.9629,2.9031c18.5517,2.5491,34.2356,6.5851,47.4059,11.2939
					c43.1927,15.4715,59.2661,38.3778,60.9655,40.9977c-2.6199-3.0801-33.4567-36.0058-153.3343-36.0058
					c-119.9485,0-150.7852,32.9256-153.4406,36.0058C322.9031,447.9493,338.9765,425.043,382.2047,409.5715z"/>
				<path class="st50" d="M604.7182,317.9816c0,31.5095-11.223,60.399-29.8809,82.9159l-37.1741-13.4181
					c26.0927-19.3305,43.0157-50.3798,43.0157-85.3234c0-58.5935-47.4766-106.1055-106.0347-106.1055l0.0708-8.1783
					C546.4788,187.9077,604.7182,246.1825,604.7182,317.9816z"/>
				<path class="st51" d="M537.6632,387.4795l37.1741,13.4181c-2.4783,3.0093-5.0981,5.8771-7.8242,8.6386v0.0354
					c-13.1703-4.7087-28.8542-8.7448-47.4059-11.2939C526.0153,395.2683,532.034,391.6571,537.6632,387.4795z"/>
				<path class="st5" d="M580.679,302.1561c0,34.9437-16.9231,65.9929-43.0157,85.3234
					c-5.6292,4.1776-11.6479,7.7888-18.056,10.7982c-13.4181-1.841-28.3585-2.9031-44.9629-2.9031s-31.5803,1.0621-45.0338,2.9031
					c-6.4081-2.9739-12.4622-6.6205-18.0914-10.7982c-26.0927-19.3305-43.0157-50.3798-43.0157-85.3234
					c0-58.5935,47.5475-106.1055,106.1409-106.1055C533.2023,196.0506,580.679,243.5626,580.679,302.1561z M531.2197,285.056
					c0-31.2617-25.3492-56.6109-56.5754-56.6109c-31.2971,0-56.6109,25.3492-56.6109,56.6109s25.3138,56.6108,56.6109,56.6108
					C505.8705,341.6668,531.2197,316.3176,531.2197,285.056z"/>
				<path class="st9" d="M474.6443,228.4451c31.2262,0,56.5754,25.3492,56.5754,56.6109s-25.3492,56.6108-56.5754,56.6108
					c-31.2971,0-56.6109-25.3492-56.6109-56.6108S443.3472,228.4451,474.6443,228.4451z M499.781,277.9752
					c0-13.8784-11.2938-25.1722-25.1367-25.1722c-13.9492,0-25.1722,11.2938-25.1722,25.1722
					c0,13.9137,11.223,25.1721,25.1722,25.1721C488.4872,303.1474,499.781,291.8889,499.781,277.9752z"/>
				<path class="st5" d="M474.6443,252.803c13.8429,0,25.1367,11.2938,25.1367,25.1722c0,13.9137-11.2938,25.1721-25.1367,25.1721
					c-13.9492,0-25.1722-11.2584-25.1722-25.1721C449.4721,264.0969,460.6951,252.803,474.6443,252.803z"/>
				<path class="st50" d="M474.7151,187.8723l-0.0708,8.1783c-58.5935,0-106.1409,47.512-106.1409,106.1055
					c0,34.9437,16.9231,65.9929,43.0157,85.3234l-37.2095,13.4181c-18.6224-22.4815-29.8101-51.4065-29.8101-82.9159
					c0-71.8345,58.2748-130.1094,130.1448-130.1094C474.6797,187.8723,474.6797,187.8723,474.7151,187.8723z"/>
				<path class="st51" d="M411.5191,387.4795c5.6292,4.1776,11.6833,7.8242,18.0914,10.7982
					c-18.5516,2.5491-34.2356,6.5851-47.4058,11.2939c-2.7615-2.7615-5.4168-5.6646-7.8951-8.674L411.5191,387.4795z"/>
			</g>
		</g>
	</g>
</g>
</svg>
