<?xml version="1.0" encoding="utf-8"?>
<!-- Generator: Adobe Illustrator 22.1.0, SVG Export Plug-In . SVG Version: 6.00 Build 0)  -->
<svg version="1.1" id="monster" xmlns="http://www.w3.org/2000/svg" xmlns:xlink="http://www.w3.org/1999/xlink" x="0px" y="0px"
	 viewBox="0 0 1000 1000" style="enable-background:new 0 0 1000 1000;" xml:space="preserve">
<style type="text/css">
	.st0{fill:#C783B7;}
	.st1{fill:#125785;}
	.st2{fill:#8E4C87;}
	.st3{fill:#1B70B6;}
	.st4{fill:#66A0D7;}
	.st5{fill:#1E1F1D;}
	.st6{fill:#A3201B;}
	.st7{fill:#E32D28;}
	.st8{fill:url(#SVGID_1_);}
	.st9{fill:#FFFFFF;}
	.st10{fill:#D5418F;}
	.st11{fill:#E3C724;}
	.st12{fill:#A7C833;}
	.st13{fill:#E6362C;}
	.st14{fill:#C72C28;}
	.st15{fill:#E3AB28;}
	.st16{fill:#9DC42B;}
	.st17{fill:#FADF21;}
	.st18{fill:#CA9220;}
	.st19{fill:#94C128;}
	.st20{fill:#74922B;}
	.st21{fill:#59AE33;}
	.st22{fill:#499834;}
	.st23{fill:#E62A46;}
	.st24{fill:#CD163B;}
	.st25{fill:#063E51;}
	.st26{fill:#B2B1B0;}
	.st27{fill:#E62A3B;}
	.st28{fill:#CA152C;}
	.st29{fill:url(#SVGID_2_);}
	.st30{fill:url(#SVGID_3_);}
	.st31{fill:#C71B1B;}
	.st32{fill:#E52523;}
	.st33{fill:url(#SVGID_4_);}
	.st34{fill:#E43333;}
	.st35{fill:#9C1C1B;}
	.st36{fill:#C8C7C7;}
	.st37{fill:#C39E05;}
	.st38{fill:#E5B90D;}
	.st39{fill:#F1C906;}
	.st40{fill:#F7B21C;}
	.st41{fill:#566EB3;}
	.st42{fill:#4081C2;}
	.st43{fill:#F2AABB;}
	.st44{fill:#EA6379;}
	.st45{fill:#C83C5A;}
	.st46{fill:#CF4162;}
	.st47{fill:#B01C1C;}
	.st48{fill:#E52923;}
	.st49{fill:#125B95;}
	.st50{fill:#EEEDED;}
	.st51{fill:#B1B1B0;}
	.st52{fill:#98C01E;}
	.st53{fill:url(#SVGID_5_);}
	.st54{fill:#5DC2DB;}
	.st55{fill:url(#SVGID_6_);}
	.st56{fill:url(#SVGID_7_);}
	.st57{fill:#030405;}
	.st58{fill:#8666A4;}
	.st59{fill:#AE8FC2;}
	.st60{fill:#8860A3;}
	.st61{fill:#704693;}
	.st62{fill:#C8C6C7;}
	.st63{fill:#A7C835;}
	.st64{fill:#64B335;}
	.st65{fill:#174865;}
	.st66{fill:#5895C5;}
	.st67{fill:#4F2672;}
	.st68{fill:url(#SVGID_8_);}
	.st69{fill:url(#SVGID_9_);}
	.st70{fill:url(#SVGID_10_);}
	.st71{fill:url(#SVGID_11_);}
	.st72{fill:#FAB21E;}
	.st73{fill:#FBD704;}
	.st74{fill:#FAC00F;}
</style>
<g>
	<path class="st41" d="M617.8569,938.1255c-34.7627,9.4014-34.7627,9.4014-34.7627,9.4014l27.9698-10.8179
		c0,0,0.7416-11.7188-22.7047-6.7144c-10.4395,2.2144-26.274,7.5674-40.6348,13.9668l54.9624-213.0595h-33.999l-38.1387,221.7646
		c-9.5903,5.625-16.27,11.3691-16.27,16.1397H634.479C634.479,968.8062,652.6289,928.7466,617.8569,938.1255z"/>
	<path class="st41" d="M384.1621,938.1255c34.7954,9.4014,34.7954,9.4014,34.7954,9.4014l-27.9809-10.8179
		c0,0-0.7544-11.7188,22.6845-6.7144c10.4375,2.2144,26.2832,7.5674,40.6328,13.9668l-54.9497-213.0595h34.0083l38.1246,221.7646
		c9.6049,5.625,16.2626,11.3691,16.2626,16.1397H367.5396C367.5396,968.8062,349.4087,928.7466,384.1621,938.1255z"/>
	<g id="XMLID_283_">
		<g>
			<path class="st42" d="M212.7612,247.6636c-0.02,0.0195-0.02,0.0195-0.02,0.0195S212.7412,247.6636,212.7612,247.6636z"/>
			<path class="st4" d="M789.248,247.6636c0.0201,0,0.0201,0.0195,0.0201,0.0195S789.2681,247.6831,789.248,247.6636z"/>
			<path class="st4" d="M271.1772,141.6182C341.0146,44.7339,500.9946,31.1909,500.9946,31.1909s159.98,13.543,229.8374,110.4273
				c0,0-42.8305-12.8887-56.3144-9.8155c0,0,71.7217,32.6783,114.7304,115.8609c-0.892-0.8926-29.664-29.5454-62.937-36.188
				c0,0,58.5747,41.6211,90.1226,151.4536c-0.9917-1.2295-32.5791-41.1055-65.5547-43.3262c0,0,65.5746,146.4761,65.5746,279.4292
				c0,60.6568-26.7495,117.5459-73.5854,161.5069l-0.0201,0.02c-52.8837,37.9326-122.8002,63.1152-204.7929,67.5371
				C344.3062,838.5659,204.79,726.7109,197.374,588.999c-2.7959-51.5156,3.7871-105.4106,13.1465-152.8218
				c0.02-0.0395,0.02-0.0795,0.02-0.1191c18.5596-67.2598,40.5899-116.4551,40.5899-116.4551
				c-32.9756,2.2207-64.6031,42.0967-65.5943,43.3262c31.5674-109.8325,90.1421-151.4536,90.1421-151.4536
				c-33.2729,6.6426-62.0249,35.2954-62.917,36.188c42.9893-83.1826,114.75-115.8609,114.75-115.8609
				C313.9878,128.7295,271.1772,141.6182,271.1772,141.6182z"/>
			<path class="st42" d="M538.0552,828.0962c81.9927-4.4219,151.9092-29.6045,204.7929-67.5371
				c-55.8183,52.3481-140.1904,86.3154-241.8535,86.3154c-187.0068,0-315.4785-114.9087-315.4785-247.8423
				c0-55.8579,11.5801-114.0957,25.0044-162.855c-9.3594,47.4112-15.9424,101.3062-13.1465,152.8218
				C204.79,726.7109,344.3062,838.5659,538.0552,828.0962z"/>
		</g>
	</g>
	<path class="st4" d="M45.6211,639.5405c8.6631-7.7998,21.6968-17.8823,35.2573-22.9824
		c22.0352-61.1465,55.9463-118.456,105.3604-161.4033c21.271-18.4966,46.5425-36.6094,73.7187-45.4033
		c18.981-6.1358,27.0029,23.6689,8.1382,29.7573c-1.3457,0.4258-2.6768,0.9653-3.9985,1.4897
		c-0.9619,0.4317-1.9429,0.8457-2.8951,1.2935c-2.7617,1.2637-5.476,2.6084-8.165,4.0127
		c-16.333,8.4448-30.6245,18.5063-43.6821,29.5493c-44.4629,37.6533-75.5952,88.042-96.2349,142.0859
		c0.541,0.3565,1.0689,0.7227,1.6035,1.1123c13.7051,10.4161,14.6104,28.6539,17.7901,44.0313
		c3.104,14.7832,40.5825,49.5273,14.8384,60.1973c-26.8794,11.1142-31.5157-38.8985-49.0684-37.9707
		c-13.5103,0.707-7.3838,28.3144-6.3467,35.7797c2.5303,17.8648,9.9898,38.7793,3.313,56.419
		c-9.4019,24.7573-39.5688,9.5098-52.7114-2.7637c-15.8584-14.8169-23.0093-38.7153-24.8672-59.7866
		C15.1899,686.665,24.2944,658.7339,45.6211,639.5405z"/>
	<path class="st4" d="M954.3779,620.3101c-8.6631-7.8106-21.6982-17.8604-35.2558-22.9815
		c-22.0381-61.1357-55.9492-118.4678-105.3726-161.4033c-21.2617-18.4707-46.5317-36.6001-73.7075-45.3877
		c-18.9912-6.1523-26.9927,23.6519-8.1494,29.75c1.3657,0.4321,2.6875,0.9556,3.9951,1.4956
		c0.9761,0.4053,1.9585,0.8423,2.8965,1.2681c2.7646,1.2636,5.4902,2.6299,8.1684,4.0205
		c16.3423,8.4526,30.6324,18.5239,43.69,29.562c44.4472,37.6308,75.5952,88.0415,96.2285,142.0757
		c-0.522,0.3667-1.0723,0.7227-1.5972,1.1274c-13.7016,10.4014-14.5991,28.6392-17.7885,44.0327
		c-3.1041,14.7676-40.5997,49.5098-14.8365,60.1807c26.8682,11.1128,31.4873-38.8984,49.0679-37.9712
		c13.498,0.7246,7.3936,28.314,6.3296,35.7842c-2.5132,17.8716-9.9849,38.7754-3.2959,56.4033
		c9.4018,24.7583,39.5659,9.5259,52.7085-2.7363c15.8706-14.8428,23.0093-38.7261,24.8672-59.8028
		C984.8203,667.4507,975.687,639.5024,954.3779,620.3101z"/>
	<g>
		<g id="XMLID_8_">
			<g>
				<path class="st35" d="M656.8994,671.707c-31.9565,45.1295-81.3915,80.3668-157.8882,80.3668
					c-76.5483,0-125.9829-35.2373-157.9399-80.3668l0.0259-0.0254c0,0,4.2026-6.3046,12.9926-15.146
					c29.9581,39.9273,75.3951,70.4747,144.2549,70.4747c69.27,0,114.8096-30.8804,144.7417-71.1919l0.0513-0.0259
					c9.3027,9.2514,13.7363,15.8891,13.7363,15.8891L656.8994,671.707z"/>
				<polygon class="st36" points="670.0464,386.5034 670.0464,402.52 322.6455,402.52 322.6455,386.5034 499.0112,386.5034 				"/>
				<path class="st5" d="M643.1377,655.7925c-21.1167-20.9629-67.4502-55.3032-144.1265-55.3032
					c-77.6245,0-124.1377,35.1347-144.9214,56.0463c-8.79,8.8414-12.9926,15.146-12.9926,15.146l-0.0259,0.0254
					c-56.8921-80.3921-58.2759-192.1518-58.2759-192.1518v-93.0518h39.8501V402.52v157.5298l70.731-136.6177l32.2641,46.1031
					l34.3662-40.8497l39.0044,44.5396l33.6739-44.5396l34.3916,40.8497l32.29-46.1031l70.6797,136.6177V402.52v-16.0166h45.1548
					v93.0518c0,0-1.4097,111.7597-58.3018,192.1518l-0.0253-0.0254C656.874,671.6816,652.4404,665.0439,643.1377,655.7925z"/>
				<polygon class="st9" points="532.6851,428.6855 499.0112,473.2251 460.0068,428.6855 425.6406,469.5352 393.3765,423.4321 
					322.6455,560.0498 322.6455,402.52 670.0464,402.52 670.0464,560.0498 599.3667,423.4321 567.0767,469.5352 				"/>
				<path class="st34" d="M499.0112,600.4893c76.6763,0,123.0098,34.3403,144.1265,55.3032l-0.0513,0.0259
					c-29.9321,40.3115-75.4717,71.1919-144.7417,71.1919c-68.8598,0-114.2968-30.5474-144.2549-70.4747
					C374.8735,635.624,421.3867,600.4893,499.0112,600.4893z"/>
			</g>
		</g>
	</g>
	<g>
		<g id="XMLID_9_">
			<g>
				<path class="st5" d="M243.8882,238.313c-0.565,3.8716-0.3491,7.5771,0.2158,11.0664c0.665,3.6553,1.4624,6.397,2.21,9.4209
					c1.5454,5.9653,3.207,11.8476,4.9018,17.7129c6.8955,23.4287,14.3731,46.4585,22.166,69.5381
					c-0.0337-0.5484-0.7812-12.8775-3.9047-33.2154c-1.5621-10.4018-3.772-22.8969-6.6133-37.0205l-4.6026-22.249
					c-0.831-4.0708-1.5122-7.4272-1.396-10.7007c0.083-3.2568,0.8975-6.0151,2.4761-8.1416
					c3.2896-4.7026,11.6807-7.1284,18.8091-7.4443h0.1494c55.4644-2.7412,91.2222-12.8272,91.2222-12.8272h-91.1055h-0.0337
					c-3.6055-0.0498-6.9951,0.2989-10.501,1.0298c-3.456,0.6983-6.979,1.8281-10.3686,3.6226
					c-3.3897,1.7778-6.6797,4.3867-9.1553,7.7929C245.8823,230.3208,244.4033,234.3584,243.8882,238.313z M690.1606,405.1709
					c11.6143-10.4517,20.1719-23.1294,27.25-36.2231c7.0621-13.1597,12.6285-26.8345,17.314-40.709
					c-0.3823,0.3989-6.1479,7.8593-14.8712,20.122c-4.5532,6.2974-9.9531,13.8243-16.2837,21.9497
					c-6.331,8.1084-13.5591,16.8985-22.3818,24.8077c-8.7901,7.9091-17.9951,13.3593-27.2837,16.3667
					c-4.6855,1.5288-9.1885,2.3759-13.791,2.9907c-4.5029,0.6982-8.6904,1.2129-12.5786,1.6118
					c-7.7095,0.7813-14.0572,1.0801-18.4937,1.2129l-6.8789,0.1665c7.2446,2.3262,14.7051,3.9878,22.2158,5.0015
					c3.7549,0.5146,7.5103,0.8637,11.2657,1.0796c1.894,0.0834,3.7714,0.1333,5.666,0.1831l2.8413,0.0332
					c1.0137,0,1.9936-0.0498,3.0073-0.083c7.9756-0.3492,15.9849-2.2764,23.3125-5.5831
					C677.7651,414.8579,684.3613,410.3052,690.1606,405.1709z M348.6353,440.2471c-86.8184,0-112.2574-157.6856-121.2466-199.4082
					c-8.9893-41.7066,34.4282-45.0962,34.4282-45.0962H439.957h116.7603h178.1235c0,0,43.4175,3.3896,34.4448,45.0962
					c-8.9892,41.7226-34.4448,199.4082-121.2631,199.4082c-86.8188,0-130.2364-66.3643-130.2364-108.2862
					c0-41.8891,0-73.3764,0-73.3764s2.9908-17.7456-19.4404-17.7456c-22.4648,0-19.4575,17.7456-19.4575,17.7456
					s0,31.4873,0,73.3764C478.8882,373.8828,435.4541,440.2471,348.6353,440.2471z"/>
				<path class="st9" d="M717.4106,368.9478c-7.0781,13.0937-15.6357,25.7714-27.25,36.2231
					c-5.7993,5.1343-12.3955,9.687-19.6899,12.9272c-7.3276,3.3067-15.3369,5.2339-23.3125,5.5831
					c-1.0137,0.0332-1.9936,0.083-3.0073,0.083l-2.8413-0.0332c-1.8946-0.0498-3.772-0.0997-5.666-0.1831
					c-3.7554-0.2159-7.5107-0.565-11.2657-1.0796c-7.5107-1.0137-14.9712-2.6753-22.2158-5.0015l6.8789-0.1665
					c4.4365-0.1328,10.7842-0.4316,18.4937-1.2129c3.8882-0.3989,8.0757-0.9136,12.5786-1.6118
					c4.6025-0.6148,9.1055-1.4619,13.791-2.9907c9.2886-3.0074,18.4936-8.4576,27.2837-16.3667
					c8.8227-7.9092,16.0508-16.6993,22.3818-24.8077c6.3306-8.1254,11.7305-15.6523,16.2837-21.9497
					c8.7232-12.2627,14.4888-19.7231,14.8712-20.122C730.0391,342.1133,724.4727,355.7881,717.4106,368.9478z"/>
				<path class="st9" d="M244.104,249.3794c-0.5649-3.4893-0.7808-7.1948-0.2158-11.0664
					c0.5151-3.9546,1.9941-7.9922,4.4697-11.4151c2.4756-3.4062,5.7656-6.0151,9.1553-7.7929
					c3.3896-1.7945,6.9126-2.9243,10.3686-3.6226c3.5059-0.7309,6.8955-1.0796,10.501-1.0298h0.0337h91.1055
					c0,0-35.7578,10.086-91.2222,12.8272h-0.1494c-7.1284,0.3159-15.5195,2.7417-18.8091,7.4443
					c-1.5786,2.1265-2.3931,4.8848-2.4761,8.1416c-0.1162,3.2735,0.565,6.6299,1.396,10.7007l4.6026,22.249
					c2.8413,14.1236,5.0512,26.6187,6.6133,37.0205c3.1235,20.3379,3.871,32.667,3.9047,33.2154
					c-7.7929-23.0796-15.2705-46.1094-22.166-69.5381c-1.6948-5.8653-3.3564-11.7476-4.9018-17.7129
					C245.5664,255.7764,244.769,253.0347,244.104,249.3794z"/>
			</g>
		</g>
	</g>
</g>
</svg>
