<?xml version="1.0" encoding="utf-8"?>
<!-- Generator: Adobe Illustrator 22.1.0, SVG Export Plug-In . SVG Version: 6.00 Build 0)  -->
<svg version="1.1" id="monster" xmlns="http://www.w3.org/2000/svg" xmlns:xlink="http://www.w3.org/1999/xlink" x="0px" y="0px"
	 viewBox="0 0 1000 1000" style="enable-background:new 0 0 1000 1000;" xml:space="preserve">
<style type="text/css">
	.st0{fill:#C783B7;}
	.st1{fill:#125785;}
	.st2{fill:#8E4C87;}
	.st3{fill:#1B70B6;}
	.st4{fill:#66A0D7;}
	.st5{fill:#1E1F1D;}
	.st6{fill:#A3201B;}
	.st7{fill:#E32D28;}
	.st8{fill:url(#SVGID_1_);}
	.st9{fill:#FFFFFF;}
	.st10{fill:#D5418F;}
	.st11{fill:#E3C724;}
	.st12{fill:#A7C833;}
	.st13{fill:#E6362C;}
	.st14{fill:#C72C28;}
	.st15{fill:#E3AB28;}
	.st16{fill:#9DC42B;}
	.st17{fill:#FADF21;}
	.st18{fill:#CA9220;}
	.st19{fill:#94C128;}
	.st20{fill:#74922B;}
	.st21{fill:#59AE33;}
	.st22{fill:#499834;}
	.st23{fill:#E62A46;}
	.st24{fill:#CD163B;}
	.st25{fill:#063E51;}
	.st26{fill:#B2B1B0;}
	.st27{fill:#E62A3B;}
	.st28{fill:#CA152C;}
	.st29{fill:url(#SVGID_2_);}
	.st30{fill:url(#SVGID_3_);}
	.st31{fill:#C71B1B;}
	.st32{fill:#E52523;}
	.st33{fill:url(#SVGID_4_);}
	.st34{fill:#E43333;}
	.st35{fill:#9C1C1B;}
	.st36{fill:#C8C7C7;}
	.st37{fill:#C39E05;}
	.st38{fill:#E5B90D;}
	.st39{fill:#F1C906;}
	.st40{fill:#F7B21C;}
	.st41{fill:#566EB3;}
	.st42{fill:#4081C2;}
	.st43{fill:#F2AABB;}
	.st44{fill:#EA6379;}
	.st45{fill:#C83C5A;}
	.st46{fill:#CF4162;}
	.st47{fill:#B01C1C;}
	.st48{fill:#E52923;}
	.st49{fill:#125B95;}
	.st50{fill:#EEEDED;}
	.st51{fill:#B1B1B0;}
	.st52{fill:#98C01E;}
	.st53{fill:url(#SVGID_5_);}
	.st54{fill:#5DC2DB;}
	.st55{fill:url(#SVGID_6_);}
	.st56{fill:url(#SVGID_7_);}
	.st57{fill:#030405;}
	.st58{fill:#8666A4;}
	.st59{fill:#AE8FC2;}
	.st60{fill:#8860A3;}
	.st61{fill:#704693;}
	.st62{fill:#C8C6C7;}
	.st63{fill:#A7C835;}
	.st64{fill:#64B335;}
	.st65{fill:#174865;}
	.st66{fill:#5895C5;}
	.st67{fill:#4F2672;}
	.st68{fill:url(#SVGID_8_);}
	.st69{fill:url(#SVGID_9_);}
	.st70{fill:url(#SVGID_10_);}
	.st71{fill:url(#SVGID_11_);}
	.st72{fill:#FAB21E;}
	.st73{fill:#FBD704;}
	.st74{fill:#FAC00F;}
</style>
<g>
	<g id="XMLID_57_">
		<g>
			<path class="st42" d="M604.0659,95.9307l26.438-18.0371l6.2378-4.2881l4.7314-3.2823l9.4048-6.5859l19.6402-13.6728
				l28.7744-19.543l16.6665,14.2519l8.4971,7.1836l3.9975,3.419l2.8389,2.3359l22.5176,18.6944l22.5756,18.7128l5.6197,4.6543
				l2.8969,2.3946l4.5381,3.9013l18.4815,15.7969l-3.4761,20.5479l-1.6802,10.1005l-0.9463,6.2374l-3.7851,24.9892l-3.7656,24.9902
				l-1.8735,12.4942l-3.5919,21.0312l-11.6836,10.8145l-2.916,2.7031l-1.6415,1.5449l-3.2446,3.1094l-12.958,12.3789
				l-25.9361,24.7969l-51.8715,49.5537c-5.3687,5.5811-11.2012,11.1816-17.4195,16.6856
				c-28.0215,24.6611-56.8926,9.5791-59.0942-13.9434L748.0356,228.873l33.9502-92.1171l-88.4096-77.4991l-67.8423,41.7715
				l27.1138,63.5947h0.019c-0.2896,3.9395-1.4673,6.6426-3.5532,7.4932c-5.7549,2.3359-16.2217-9.9267-23.4058-27.4043
				l-4.4222-9.7139l-2.2984-5.0595l-2.9547-6.6621L604.0659,95.9307z"/>
			<path class="st49" d="M648.522,99.3291l-12.3018,6.7402l4.0361,12.1084l1.0816,3.1866l1.7187,4.789l3.6499,10.0235
				c4.5381,11.0849,6.6626,21.6289,6.1602,28.4462h-0.019l-27.1138-63.5947l67.8423-41.7715l88.4096,77.4991l-33.9502,92.1171
				L602.0381,349.9004c-1.0044-10.7559,3.5727-23.2705,16.3765-34.5674c6.2377-5.4658,12.5141-10.5449,18.7133-15.1601
				l55.7144-45.1895l27.8672-22.6338l13.9238-11.3164l3.4761-2.8389l1.7573-1.3906c0.1934-0.1162,0.2705-0.1738,0.4253-0.2705
				l1.7378-1.043l0.5019-1.2939l0.2705-0.6377l0.1353-0.3467l0.3477-1.4678l2.8774-12.2636l5.7935-24.6221l5.7934-24.6035
				l1.4678-6.1416c0.1352-0.6563,0.1352-0.5791,0.1933-0.8106l0.1739-0.4834l0.3086-1.0039l1.352-4.2675l-3.3022-3.7657
				l-0.8882-1.0049l-2.5303-2.4716l-5.2139-5.1182l-20.9921-20.4512l-20.9341-20.4511l-2.6265-2.5879l-0.5601-0.5596l-0.2701-0.3096
				l-0.5991-0.5986l-2.3945-2.5488l-5.0405-5.3682l-9.9648,5.252c-0.5215,0.29-2.588,1.5068-4.1714,2.414l-4.9438,2.916
				l-9.9453,5.794l-9.9458,5.8125l-4.9439,2.8974l-1.2554,0.753l-0.7338,0.3857L648.522,99.3291z"/>
		</g>
	</g>
	<g id="XMLID_55_">
		<g>
			<path class="st42" d="M344.6641,349.9004L198.6855,228.873l-33.9501-92.1171l88.4096-77.4991l67.8238,41.7715L293.874,164.623
				h-0.0386c0.2896,3.959,1.4678,6.6426,3.5728,7.4932c5.7739,2.3359,16.2026-9.9267,23.4058-27.4043l4.4033-9.7139l2.3174-5.0595
				l2.9741-6.6621l12.1665-27.3457l-26.4766-18.0371l-6.2187-4.2881l-4.7315-3.2823l-9.4238-6.5859l-19.6406-13.6728
				l-28.7744-19.543l-16.647,14.2519l-8.5166,7.1836l-3.9976,3.419l-2.8193,2.3359l-22.5371,18.6944l-22.5176,18.7128
				l-5.6582,4.6543l-2.916,2.3946l-4.5386,3.9013l-18.4619,15.7969l3.4565,20.5479l1.6802,10.1005l0.9658,6.2374l3.7657,24.9892
				l3.7661,24.9902l1.8921,12.4942l3.5342,21.0312l11.7226,10.8145l2.9351,2.7031l1.6416,1.5449l3.2251,3.1094l12.9585,12.3789
				l25.9355,24.7969l51.8911,49.5537c5.3491,5.5811,11.1817,11.1816,17.4385,16.6856
				c28.0215,24.6611,56.9121,9.5791,59.0752-13.9434H344.6641z"/>
			<path class="st49" d="M293.874,164.623l27.0948-63.5947L253.145,59.2568l-88.4096,77.4991l33.9501,92.1171l145.9786,121.0274
				h0.0195c1.0039-10.7559-3.5923-23.2705-16.3765-34.5674c-6.2573-5.4658-12.5337-10.5449-18.7324-15.1601l-55.7148-45.1895
				l-27.8477-22.6338l-13.9434-11.3164l-3.476-2.8389l-1.7574-1.3906c-0.1738-0.1162-0.2705-0.1738-0.4057-0.2705l-1.7188-1.043
				l-0.5405-1.2939l-0.2705-0.6377l-0.1157-0.3467l-0.3286-1.4678l-2.916-12.2636l-5.7935-24.6221l-5.7935-24.6035l-1.4482-6.1416
				c-0.1353-0.6563-0.1353-0.5791-0.2124-0.8106l-0.1548-0.4834l-0.3281-1.0039l-1.3325-4.2675l3.2827-3.7657l0.8886-1.0049
				l2.5298-2.4716l5.2334-5.1182l20.9727-20.4512l20.9536-20.4511l2.6069-2.5879l0.5796-0.5596l0.27-0.3096l0.5796-0.5986
				l2.4141-2.5488l5.04-5.3682l9.9458,5.252c0.5215,0.29,2.607,1.5068,4.1714,2.414l4.9824,2.916l9.9263,5.794l9.9458,5.8125
				l4.9439,2.8974l1.2358,0.753l0.7339,0.3857l1.4678,0.792l12.2822,6.7402l-4.0171,12.1084l-1.062,3.1866l-1.7188,4.789
				l-3.6499,10.0235c-4.5576,11.0849-6.6821,21.6289-6.1797,28.4462H293.874z"/>
		</g>
	</g>
	<g id="XMLID_53_">
		<g>
			<path class="st42" d="M475.9619,215.0947c241.9663,0,326.1499,91.8116,309.7505,274.7657
				c-0.2979,115.0937-28.2764,241.9414-32.873,301.7744c-2.0625,27.0088,5.4912,43.7568,18.8344,53.6454
				c-51.2114-23.2071-34.4887-68.5293-20.7729-332.834c16.3003-313.6514-313.8008-296.333-313.8008-296.333v-0.0244
				C449.5239,215.4424,462.4692,215.0947,475.9619,215.0947z"/>
			<path class="st4" d="M203.0601,968.8477c-148.2413,8.1503-247.6817-65.1748-123.816-77.4004
				c123.816-12.2003,63.7837-248.4766,50.6397-448.1026c0,0-6.585-65.25,38.4888-118.3984
				c0.0996-0.1494,58.5908-97.9502,268.7275-108.8574v0.0244c0,0,330.1011-17.3184,313.8008,296.333
				c-13.7158,264.3047-30.4385,309.6269,20.7729,332.834c0.0249,0.0255,0.0249,0,0.0249,0
				c9.5415,7.1064,22.0645,10.6845,36.1778,11.9765h0.0249c55.435,5.1436,135.2954-24.7724,155.0991-14.6601
				c31.9043,16.251,18.7602,126.873-151.9932,126.873c-170.7529,0-178.2568-99.0683-178.2568-99.0683
				s-24.4004,99.0683-133.2334,99.0683c-108.8325,0-95.6631-110.622-95.6631-110.622S351.3013,960.6982,203.0601,968.8477z"/>
		</g>
	</g>
	<g>
		<g id="XMLID_51_">
			<g>
				<path class="st5" d="M495.0063,485.5508c0-23.4092-18.9912-42.4004-42.3999-42.4004c-23.374,0-42.3657,18.9912-42.3657,42.4004
					c0,23.4082,18.9917,42.3652,42.3657,42.3652C476.0151,527.916,495.0063,508.959,495.0063,485.5508z M452.6064,422.9414
					c64.1392,0,116.1392,52,116.1392,116.0703c0,64.0694-52,116.0694-116.1392,116.0694c-64.1049,0-116.0356-52-116.0356-116.0694
					C336.5708,474.9414,388.5015,422.9414,452.6064,422.9414z M392.5366,521.3076c-11.7568,0-21.2178,9.461-21.2178,21.1826
					c0,11.7217,9.461,21.2168,21.2178,21.2168c11.687,0,21.1826-9.4951,21.1826-21.2168
					C413.7192,530.7686,404.2236,521.3076,392.5366,521.3076z"/>
				<linearGradient id="SVGID_1_" gradientUnits="userSpaceOnUse" x1="273.0576" y1="539.0288" x2="632.1895" y2="539.0288">
					<stop  offset="0" style="stop-color:#2273B7"/>
					<stop  offset="0.6" style="stop-color:#3DA4DD"/>
				</linearGradient>
				<path class="st8" d="M452.6064,422.9414c-64.1049,0-116.0356,52-116.0356,116.0703
					c0,64.0694,51.9307,116.0694,116.0356,116.0694c64.1392,0,116.1392-52,116.1392-116.0694
					C568.7456,474.9414,516.7456,422.9414,452.6064,422.9414z M273.0576,539.0117c0-99.166,80.3828-179.5488,179.5488-179.5488
					c99.2002,0,179.5831,80.3828,179.5831,179.5488c0,99.1309-80.3829,179.583-179.5831,179.583
					C353.4404,718.5947,273.0576,638.1426,273.0576,539.0117z"/>
				<path class="st9" d="M371.3188,542.4902c0-11.7216,9.461-21.1826,21.2178-21.1826c11.687,0,21.1826,9.461,21.1826,21.1826
					c0,11.7217-9.4956,21.2168-21.1826,21.2168C380.7798,563.707,371.3188,554.2119,371.3188,542.4902z"/>
				<path class="st9" d="M452.6064,443.1504c23.4087,0,42.3999,18.9912,42.3999,42.4004c0,23.4082-18.9912,42.3652-42.3999,42.3652
					c-23.374,0-42.3657-18.957-42.3657-42.3652C410.2407,462.1416,429.2324,443.1504,452.6064,443.1504z"/>
				<path class="st9" d="M632.1895,539.0117c0-99.166-80.3829-179.5488-179.5831-179.5488
					c-99.166,0-179.5488,80.3828-179.5488,179.5488c0,99.1309,80.3828,179.583,179.5488,179.583
					C551.8066,718.5947,632.1895,638.1426,632.1895,539.0117z M452.6064,267.2539c150.0874,0,271.7227,121.6357,271.7227,271.7578
					S602.6938,810.7686,452.6064,810.7686c-150.0878,0-271.6879-121.6348-271.6879-271.7569S302.5186,267.2539,452.6064,267.2539z"
					/>
			</g>
		</g>
	</g>
</g>
</svg>
