<?xml version="1.0" encoding="utf-8"?>
<!-- Generator: Adobe Illustrator 23.0.0, SVG Export Plug-In . SVG Version: 6.00 Build 0)  -->
<svg version="1.1" id="图层_1" xmlns="http://www.w3.org/2000/svg" xmlns:xlink="http://www.w3.org/1999/xlink" x="0px" y="0px"
	 viewBox="0 0 1080 1080" style="enable-background:new 0 0 1080 1080;" xml:space="preserve">
<style type="text/css">
	.st0{fill:#A0F8FF;}
	.st1{fill:#00A6E6;}
	.st2{fill:#D3FFFC;}
	.st3{fill:#BF863B;}
	.st4{fill:#A46230;}
	.st5{fill:#FFF4DA;}
	
		.st6{clip-path:url(#SVGID_2_);fill:none;stroke:#000000;stroke-width:10;stroke-linecap:round;stroke-linejoin:round;stroke-miterlimit:10;}
</style>
<g>
	<path class="st0" d="M326.6,181.5l260.3,129.7c5.2,2.6,5.2,9.9,0,12.5L326.6,454.4c-4.7,2.3-10.1-1-10.1-6.3V187.8
		C316.4,182.6,321.9,179.2,326.6,181.5"/>
	<path class="st1" d="M441.8,176.5h151.6c3.9,0,7,3.1,7,7v76.6c0,5.2-5.5,8.6-10.2,6.2l-151.6-76.6
		C432.1,186.4,434.4,176.5,441.8,176.5"/>
	<path class="st2" d="M441.8,460.5h151.6c3.9,0,7-3.1,7-7v-76.6c0-5.2-5.5-8.6-10.2-6.2l-151.6,76.6
		C432.1,450.5,434.4,460.5,441.8,460.5"/>
	<path class="st0" d="M152.1,753.7l129.7-260.3c2.6-5.2,9.9-5.2,12.5,0L425,753.6c2.3,4.7-1,10.1-6.3,10.1H158.4
		C153.2,763.8,149.8,758.3,152.1,753.7"/>
	<path class="st1" d="M147.1,638.4V486.8c0-3.9,3.1-7,7-7h76.6c5.2,0,8.6,5.5,6.2,10.2l-76.6,151.6
		C157,648.1,147.1,645.8,147.1,638.4"/>
	<path class="st2" d="M431.1,638.4V486.8c0-3.9-3.1-7-7-7h-76.6c-5.2,0-8.6,5.5-6.2,10.2l76.6,151.6
		C421.1,648.1,431.1,645.8,431.1,638.4"/>
	<path class="st0" d="M752.4,926.6L492.1,796.8c-5.2-2.6-5.2-9.9,0-12.5l260.3-130.6c4.7-2.3,10.1,1,10.1,6.3v260.3
		C762.5,925.5,757.1,928.9,752.4,926.6"/>
	<path class="st1" d="M637.2,931.6H485.5c-3.9,0-7-3.1-7-7V848c0-5.2,5.5-8.6,10.2-6.2l151.6,76.6
		C646.9,921.7,644.5,931.6,637.2,931.6"/>
	<path class="st2" d="M637.2,647.6H483.5c-2.8,0-5,2.2-5,5v78.6c0,5.2,5.5,8.6,10.2,6.2l151.6-76.6
		C646.9,657.5,644.5,647.6,637.2,647.6"/>
	<path class="st3" d="M926.5,326.4L796.8,586.8c-2.6,5.2-9.9,5.2-12.5,0L653.6,326.4c-2.3-4.7,1-10.1,6.3-10.1l260.3,0
		C925.4,316.3,928.8,321.8,926.5,326.4"/>
	<path class="st4" d="M931.5,441.7v151.6c0,3.9-3.1,7-7,7h-76.6c-5.2,0-8.6-5.5-6.2-10.2l76.6-151.6
		C921.6,431.9,931.5,434.3,931.5,441.7"/>
	<path class="st5" d="M647.5,441.7v151.6c0,3.9,3.1,7,7,7h76.6c5.2,0,8.6-5.5,6.2-10.2l-76.6-151.6
		C657.5,431.9,647.5,434.3,647.5,441.7"/>
</g>
<g>
	<defs>
		<rect id="SVGID_1_" width="1080" height="1080"/>
	</defs>
	<clipPath id="SVGID_2_">
		<use xlink:href="#SVGID_1_"  style="overflow:visible;"/>
	</clipPath>
	<path class="st6" d="M557.1,318.2L310.7,441.9c-3.3,1.7-7.2-0.7-7.2-4.5V281.5"/>
	<path class="st6" d="M568.1,294.3l9.5,4.7c3.7,1.8,3.7,7.1,0,8.9l-10.4,5.2"/>
	<path class="st6" d="M303.5,242.4v-70.2c0-4.5,4.7-7.4,8.7-5.4l240.8,120"/>
	<line class="st6" x1="303.5" y1="245.7" x2="303.5" y2="242.4"/>
	<path class="st6" d="M554.4,162.5h28.1c2.8,0,5,2.2,5,5v81.9c0,3.7-3.9,6.1-7.3,4.5l-162-81.9c-4.7-2.4-3-9.5,2.3-9.5h81"/>
	<line class="st6" x1="518.9" y1="162.5" x2="540.9" y2="162.5"/>
	<path class="st6" d="M463.5,414.2L418.2,437c-4.7,2.4-3,9.5,2.3,9.5h162c2.8,0,5-2.2,5-5v-81.9c0-3.7-3.9-6.1-7.3-4.5L515.3,388"/>
	<line class="st6" x1="497.7" y1="396.9" x2="478" y2="406.8"/>
	<path class="st6" d="M214.8,669.1l82.9-166.4c1.8-3.7,7.1-3.7,8.9,0l133.9,266.8c1.7,3.3-0.7,7.2-4.5,7.2H170.8
		c-4.5,0-7.4-4.7-5.4-8.7l23.4-46.9"/>
	<line class="st6" x1="195.9" y1="707" x2="207.1" y2="684.6"/>
	<path class="st6" d="M204.7,594.6l-34.1,67.5c-2.4,4.7-9.5,3-9.5-2.3v-162c0-2.8,2.2-5,5-5H248c3.7,0,6.1,3.9,4.5,7.3L224,556.4"/>
	<line class="st6" x1="218" y1="568.3" x2="210.5" y2="583"/>
	<path class="st6" d="M415.5,622.2l20.2,39.9c2.4,4.7,9.5,3,9.5-2.3v-162c0-2.8-2.2-5-5-5l-81.9,0c-3.7,0-6.1,3.9-4.5,7.3l28.9,57.3
		"/>
	<line class="st6" x1="394.8" y1="581.2" x2="407.5" y2="606.3"/>
	<path class="st6" d="M777.6,826.8V909c0,4.5-4.7,7.4-8.7,5.4L503.5,782.1c-3.7-1.8-3.7-7.1,0-8.9l266.8-133.9
		c3.3-1.7,7.2,0.7,7.2,4.5v124.5"/>
	<line class="st6" x1="777.6" y1="809.7" x2="777.6" y2="810"/>
	<line class="st6" x1="777.6" y1="781.5" x2="777.6" y2="796.1"/>
	<line class="st6" x1="594.9" y1="918.6" x2="549.9" y2="918.6"/>
	<path class="st6" d="M533.9,918.6h-35.4c-2.8,0-5-2.2-5-5v-81.9c0-3.7,3.9-6.1,7.3-4.5l162,81.9c4.7,2.4,3,9.5-2.3,9.5h-46.4"/>
	<line class="st6" x1="532.4" y1="710" x2="570.9" y2="690.6"/>
	<path class="st6" d="M582,685l80.9-40.9c4.7-2.4,3-9.5-2.3-9.5h-162c-2.8,0-5,2.2-5,5v81.9c0,3.7,3.9,6.1,7.3,4.5l20.6-10.4"/>
	<path class="st6" d="M830.4,483.4L783,578.4c-1.8,3.7-7.1,3.7-8.9,0L640.2,311.6c-1.7-3.3,0.7-7.2,4.5-7.2h265.2
		c4.5,0,7.4,4.7,5.4,8.7l-51.5,103.3"/>
	<line class="st6" x1="854.8" y1="435.4" x2="839.8" y2="465.6"/>
	<path class="st6" d="M919.6,561.9v21.1c0,2.7-2,4.9-4.4,4.9H903"/>
	<path class="st6" d="M889,588.4h-56.3c-3.7,0-6.1-3.9-4.5-7.3l81.9-162c2.4-4.7,9.5-3,9.5,2.3v127.2"/>
	<path class="st6" d="M635.6,532.5v50.8c0,2.8,2.2,5,5,5l81.9,0c3.7,0,6.1-3.9,4.5-7.3l-81.9-162c-2.4-4.7-9.5-3-9.5,2.3v56.1"/>
	<line class="st6" x1="635.6" y1="508.3" x2="635.6" y2="518"/>
	<line class="st6" x1="635.6" y1="489.2" x2="635.6" y2="493"/>
	<line class="st6" x1="303.5" y1="267.9" x2="303.5" y2="259.3"/>
</g>
</svg>
